<svg xmlns="http://www.w3.org/2000/svg" width="16" height="16" viewBox="0 0 16 16" fill="none"><path d="M13.06 4.45999C12.3954 4.31386 11.7942 3.96095 11.3427 3.45192C10.8912 2.94289 10.6125 2.30391 10.5466 1.62666V1.33333H8.24664V10.4467C8.24711 10.851 8.12033 11.2453 7.88427 11.5736C7.64821 11.9019 7.31483 12.1477 6.93135 12.276C6.54787 12.4043 6.13375 12.4087 5.74763 12.2886C5.36151 12.1685 5.02297 11.9299 4.77997 11.6067C4.56227 11.3206 4.42897 10.9792 4.39513 10.6213C4.36129 10.2634 4.42827 9.90316 4.58849 9.58133C4.74872 9.25949 4.9958 8.9889 5.30178 8.80017C5.60777 8.61143 5.96046 8.51207 6.31997 8.51333C6.5188 8.51219 6.71664 8.54142 6.90664 8.59999V6.26666C6.68553 6.23928 6.46271 6.22814 6.23997 6.23333C5.41952 6.25525 4.62325 6.51595 3.9487 6.98351C3.27414 7.45106 2.75057 8.10518 2.44209 8.86576C2.13362 9.62633 2.05363 10.4604 2.21192 11.2657C2.37021 12.071 2.75991 12.8128 3.33331 13.4C3.92097 13.9975 4.67297 14.4068 5.49377 14.5759C6.31457 14.745 7.16712 14.6663 7.94308 14.3497C8.71904 14.0332 9.3834 13.4931 9.85173 12.7982C10.3201 12.1032 10.5712 11.2847 10.5733 10.4467V5.77999C11.5009 6.44263 12.6133 6.79709 13.7533 6.79333V4.52666C13.5294 4.52759 13.306 4.50524 13.0866 4.45999H13.06Z" fill="black"></path></svg>