<svg xmlns="http://www.w3.org/2000/svg" width="178" height="22" viewBox="0 0 178 22" fill="none"><path fill-rule="evenodd" clip-rule="evenodd" d="M21.9108 12.4073C21.9697 11.9465 22 11.4768 22 11C22 10.6745 21.9859 10.3523 21.9582 10.034C21.4056 11.0122 21.1066 12.1949 21.0372 13.1504C16.2228 12.5611 15.7773 12.5611 10.9628 13.1504C10.888 12.1213 10.547 10.8286 9.90963 9.81182C9.54587 9.2314 9.07829 8.73467 8.47257 8.47449C8.16973 8.34441 7.83483 8.2823 7.48123 8.29908C7.44656 8.30093 7.41193 8.30352 7.37738 8.30683C7.3324 7.55916 7.41958 6.71389 7.66798 5.98221C7.86457 5.40324 8.1567 4.89789 8.52937 4.5498C8.90208 4.20176 9.34362 4 9.92381 4H19.4857C17.4681 1.55699 14.4159 0 11 0C4.92487 0 0 4.92487 0 11C0 17.0751 4.92487 22 11 22C14.7865 22 18.1261 20.0868 20.105 17.1744H8.86006L7.53342 12.6157L7.34333 12.5535C5.60617 11.9849 5.73006 9.7486 6.71799 9.26359C7.01597 9.11731 7.2767 9.04713 7.51388 9.03536C7.54351 9.03395 7.57279 9.03337 7.60174 9.0337C7.80428 9.03598 7.99011 9.08126 8.16817 9.15778C8.57515 9.33257 8.95145 9.70585 9.26286 10.2026C9.88558 11.1962 10.2192 12.6587 10.2192 13.5701V13.9925L10.6461 13.9401C13.3466 13.6086 14.6733 13.4429 16 13.4429C17.3267 13.4429 18.6534 13.6086 21.3539 13.9401L21.5945 13.9696C21.6806 13.6618 21.7536 13.3486 21.813 13.0305C21.8347 12.833 21.8674 12.6232 21.9108 12.4073ZM7.74883 18.8842L8.73081 17.9201H9.98449C9.92916 18.0288 9.87328 18.1532 9.81781 18.2767C9.72375 18.4861 9.6309 18.6928 9.54405 18.8152C9.17294 19.0401 8.25493 19.0184 7.74883 18.8842Z" fill="white"></path><path d="M47.452 17H43.804L40.864 5.024H41.416L38.464 17H34.804L31.3 1.16H34.732L36.832 13.064H36.796L39.94 1.16H42.328L45.484 13.064H45.436L47.548 1.16H50.98L47.452 17ZM57.2838 17.288C56.2358 17.288 55.2998 17.064 54.4758 16.616C53.6598 16.168 53.0198 15.556 52.5558 14.78C52.0918 13.996 51.8598 13.104 51.8598 12.104C51.8598 11.104 52.0918 10.212 52.5558 9.428C53.0198 8.636 53.6598 8.012 54.4758 7.556C55.2998 7.092 56.2358 6.86 57.2838 6.86C58.3398 6.86 59.2718 7.092 60.0798 7.556C60.8878 8.012 61.5198 8.636 61.9758 9.428C62.4318 10.212 62.6598 11.104 62.6598 12.104C62.6598 13.104 62.4318 13.996 61.9758 14.78C61.5198 15.556 60.8878 16.168 60.0798 16.616C59.2718 17.064 58.3398 17.288 57.2838 17.288ZM57.2838 14.756C57.7878 14.756 58.2238 14.644 58.5918 14.42C58.9678 14.188 59.2558 13.872 59.4558 13.472C59.6638 13.064 59.7678 12.604 59.7678 12.092C59.7678 11.58 59.6638 11.12 59.4558 10.712C59.2558 10.304 58.9678 9.984 58.5918 9.752C58.2238 9.512 57.7878 9.392 57.2838 9.392C56.7798 9.392 56.3398 9.512 55.9638 9.752C55.5958 9.984 55.3078 10.304 55.0998 10.712C54.8918 11.12 54.7878 11.58 54.7878 12.092C54.7878 12.604 54.8918 13.064 55.0998 13.472C55.3078 13.872 55.5958 14.188 55.9638 14.42C56.3398 14.644 56.7798 14.756 57.2838 14.756ZM69.5416 17.288C68.4936 17.288 67.5576 17.064 66.7336 16.616C65.9176 16.168 65.2776 15.556 64.8136 14.78C64.3496 13.996 64.1176 13.104 64.1176 12.104C64.1176 11.104 64.3496 10.212 64.8136 9.428C65.2776 8.636 65.9176 8.012 66.7336 7.556C67.5576 7.092 68.4936 6.86 69.5416 6.86C70.5976 6.86 71.5296 7.092 72.3376 7.556C73.1456 8.012 73.7776 8.636 74.2336 9.428C74.6896 10.212 74.9176 11.104 74.9176 12.104C74.9176 13.104 74.6896 13.996 74.2336 14.78C73.7776 15.556 73.1456 16.168 72.3376 16.616C71.5296 17.064 70.5976 17.288 69.5416 17.288ZM69.5416 14.756C70.0456 14.756 70.4816 14.644 70.8496 14.42C71.2256 14.188 71.5136 13.872 71.7136 13.472C71.9216 13.064 72.0256 12.604 72.0256 12.092C72.0256 11.58 71.9216 11.12 71.7136 10.712C71.5136 10.304 71.2256 9.984 70.8496 9.752C70.4816 9.512 70.0456 9.392 69.5416 9.392C69.0376 9.392 68.5976 9.512 68.2216 9.752C67.8536 9.984 67.5656 10.304 67.3576 10.712C67.1496 11.12 67.0456 11.58 67.0456 12.092C67.0456 12.604 67.1496 13.064 67.3576 13.472C67.5656 13.872 67.8536 14.188 68.2216 14.42C68.5976 14.644 69.0376 14.756 69.5416 14.756ZM83.2514 6.86C83.9234 6.86 84.5794 7 85.2194 7.28C85.8594 7.552 86.3834 7.988 86.7914 8.588C87.2074 9.188 87.4154 9.972 87.4154 10.94V17H84.3554V11.468C84.3554 10.66 84.1634 10.06 83.7794 9.668C83.4034 9.276 82.9074 9.08 82.2914 9.08C81.8914 9.08 81.5074 9.192 81.1394 9.416C80.7794 9.632 80.4834 9.936 80.2514 10.328C80.0274 10.712 79.9154 11.152 79.9154 11.648V17H76.8674V7.148H79.9154V8.72C80.0034 8.448 80.2034 8.168 80.5154 7.88C80.8274 7.592 81.2234 7.352 81.7034 7.16C82.1834 6.96 82.6994 6.86 83.2514 6.86ZM95.2557 0.871999C96.2077 0.871999 97.0357 0.979999 97.7397 1.196C98.4517 1.404 99.0157 1.628 99.4317 1.868C99.8557 2.108 100.112 2.264 100.2 2.336L98.7357 4.772C98.6077 4.668 98.3877 4.524 98.0757 4.34C97.7717 4.148 97.4037 3.98 96.9717 3.836C96.5397 3.684 96.0717 3.608 95.5677 3.608C94.8397 3.608 94.2557 3.748 93.8157 4.028C93.3837 4.3 93.1677 4.696 93.1677 5.216C93.1677 5.568 93.2837 5.884 93.5157 6.164C93.7477 6.436 94.0877 6.692 94.5357 6.932C94.9917 7.172 95.5477 7.424 96.2037 7.688C96.7797 7.912 97.3277 8.172 97.8477 8.468C98.3757 8.764 98.8437 9.112 99.2517 9.512C99.6677 9.912 99.9957 10.376 100.236 10.904C100.484 11.432 100.608 12.036 100.608 12.716C100.608 13.476 100.452 14.14 100.14 14.708C99.8357 15.276 99.4117 15.752 98.8677 16.136C98.3317 16.52 97.7157 16.808 97.0197 17C96.3237 17.192 95.5917 17.288 94.8237 17.288C93.7837 17.288 92.8477 17.168 92.0157 16.928C91.1917 16.68 90.5237 16.416 90.0117 16.136C89.4997 15.856 89.1997 15.676 89.1117 15.596L90.6477 13.064C90.7437 13.136 90.9237 13.252 91.1877 13.412C91.4597 13.572 91.7877 13.736 92.1717 13.904C92.5637 14.072 92.9877 14.216 93.4437 14.336C93.9077 14.456 94.3797 14.516 94.8597 14.516C95.7237 14.516 96.3757 14.336 96.8157 13.976C97.2557 13.616 97.4757 13.148 97.4757 12.572C97.4757 12.14 97.3357 11.76 97.0557 11.432C96.7757 11.104 96.3797 10.804 95.8677 10.532C95.3637 10.252 94.7597 9.968 94.0557 9.68C93.3517 9.384 92.6957 9.04 92.0877 8.648C91.4877 8.248 91.0037 7.76 90.6357 7.184C90.2677 6.6 90.0837 5.884 90.0837 5.036C90.0837 4.196 90.3197 3.464 90.7917 2.84C91.2717 2.216 91.9037 1.732 92.6877 1.388C93.4797 1.044 94.3357 0.871999 95.2557 0.871999ZM105.956 21.992H102.932V7.148H105.992V8.744C106.088 8.512 106.296 8.248 106.616 7.952C106.936 7.656 107.352 7.4 107.864 7.184C108.384 6.968 108.976 6.86 109.64 6.86C110.576 6.86 111.392 7.088 112.088 7.544C112.784 8 113.32 8.624 113.696 9.416C114.08 10.2 114.272 11.088 114.272 12.08C114.272 13.072 114.072 13.964 113.672 14.756C113.272 15.54 112.716 16.16 112.004 16.616C111.292 17.064 110.464 17.288 109.52 17.288C108.808 17.288 108.196 17.16 107.684 16.904C107.172 16.648 106.772 16.36 106.484 16.04C106.196 15.72 106.02 15.468 105.956 15.284V21.992ZM111.284 12.08C111.284 11.528 111.164 11.044 110.924 10.628C110.692 10.204 110.38 9.876 109.988 9.644C109.596 9.404 109.16 9.284 108.68 9.284C108.176 9.284 107.72 9.404 107.312 9.644C106.904 9.884 106.58 10.216 106.34 10.64C106.108 11.056 105.992 11.536 105.992 12.08C105.992 12.624 106.108 13.108 106.34 13.532C106.58 13.948 106.904 14.276 107.312 14.516C107.72 14.748 108.176 14.864 108.68 14.864C109.16 14.864 109.596 14.748 109.988 14.516C110.38 14.284 110.692 13.96 110.924 13.544C111.164 13.12 111.284 12.632 111.284 12.08ZM119.089 17H116.041V7.148H119.089V8.744H119.029C119.085 8.552 119.237 8.308 119.485 8.012C119.741 7.716 120.093 7.452 120.541 7.22C120.989 6.98 121.529 6.86 122.161 6.86C122.617 6.86 123.029 6.928 123.397 7.064C123.773 7.192 124.041 7.32 124.201 7.448L123.001 9.944C122.897 9.816 122.701 9.684 122.413 9.548C122.133 9.412 121.781 9.344 121.357 9.344C120.853 9.344 120.433 9.484 120.097 9.764C119.761 10.036 119.509 10.372 119.341 10.772C119.173 11.164 119.089 11.532 119.089 11.876V17ZM125.506 17V7.148H128.542V17H125.506ZM127.066 4.604C126.562 4.604 126.134 4.428 125.782 4.076C125.438 3.724 125.266 3.304 125.266 2.816C125.266 2.328 125.442 1.904 125.794 1.544C126.146 1.184 126.57 1.004 127.066 1.004C127.394 1.004 127.694 1.088 127.966 1.256C128.238 1.416 128.458 1.632 128.626 1.904C128.794 2.176 128.878 2.48 128.878 2.816C128.878 3.304 128.698 3.724 128.338 4.076C127.986 4.428 127.562 4.604 127.066 4.604ZM137.603 6.86C138.275 6.86 138.931 7 139.571 7.28C140.211 7.552 140.735 7.988 141.143 8.588C141.559 9.188 141.767 9.972 141.767 10.94V17H138.707V11.468C138.707 10.66 138.515 10.06 138.131 9.668C137.755 9.276 137.259 9.08 136.643 9.08C136.243 9.08 135.859 9.192 135.491 9.416C135.131 9.632 134.835 9.936 134.603 10.328C134.379 10.712 134.267 11.152 134.267 11.648V17H131.219V7.148H134.267V8.72C134.355 8.448 134.555 8.168 134.867 7.88C135.179 7.592 135.575 7.352 136.055 7.16C136.535 6.96 137.051 6.86 137.603 6.86ZM143.295 7.148H145.071V3.104H148.095V7.148H150.423V9.68H148.095V13.244C148.095 13.716 148.171 14.084 148.323 14.348C148.475 14.604 148.715 14.732 149.043 14.732C149.291 14.732 149.495 14.684 149.655 14.588C149.815 14.484 149.911 14.412 149.943 14.372L151.023 16.556C150.975 16.604 150.819 16.688 150.555 16.808C150.299 16.928 149.967 17.036 149.559 17.132C149.159 17.236 148.707 17.288 148.203 17.288C147.299 17.288 146.551 17.028 145.959 16.508C145.367 15.98 145.071 15.164 145.071 14.06V9.68H143.295V7.148ZM154.913 17.288C154.377 17.288 153.917 17.096 153.533 16.712C153.149 16.328 152.957 15.868 152.957 15.332C152.957 14.78 153.149 14.312 153.533 13.928C153.917 13.544 154.377 13.352 154.913 13.352C155.465 13.352 155.929 13.544 156.305 13.928C156.689 14.312 156.881 14.78 156.881 15.332C156.881 15.868 156.689 16.328 156.305 16.712C155.929 17.096 155.465 17.288 154.913 17.288ZM166.173 6.86C166.845 6.86 167.501 7 168.141 7.28C168.781 7.552 169.305 7.988 169.713 8.588C170.129 9.188 170.337 9.972 170.337 10.94V17H167.277V11.468C167.277 10.66 167.085 10.06 166.701 9.668C166.325 9.276 165.829 9.08 165.213 9.08C164.813 9.08 164.429 9.192 164.061 9.416C163.701 9.632 163.405 9.936 163.173 10.328C162.949 10.712 162.837 11.152 162.837 11.648V17H159.789V7.148H162.837V8.72C162.925 8.448 163.125 8.168 163.437 7.88C163.749 7.592 164.145 7.352 164.625 7.16C165.105 6.96 165.621 6.86 166.173 6.86ZM175.79 17H172.73V0.487999H175.79V17Z" fill="white"></path></svg>