<svg xmlns="http://www.w3.org/2000/svg" width="428" height="384" viewBox="0 0 428 384" fill="none"><g clip-path="url(#clip0_4_13)"><path opacity="0.1" d="M338.145 290.609C396.399 232.443 396.399 138.138 338.145 79.9717C279.892 21.8057 185.445 21.8057 127.191 79.9717C68.9381 138.138 68.9381 232.443 127.191 290.609C185.445 348.775 279.892 348.775 338.145 290.609Z" fill="white"></path><path d="M204.965 249.128C207.765 248.826 210.214 248.572 212.664 248.286C219.482 247.517 226.357 247.389 233.199 247.905C242.839 248.618 252.411 250.067 261.83 252.241C262.1 252.241 262.386 252.352 262.657 252.432C263.341 252.622 263.643 252.352 263.85 251.669C264.359 249.891 264.963 248.144 265.536 246.381C270.307 231.737 280.042 221.652 293.976 215.315C302.842 211.365 312.567 209.726 322.241 210.55C324.111 210.684 325.971 210.938 327.808 211.313C328.015 208.994 328.285 206.77 328.428 204.547C329.128 195.12 331.639 185.915 335.824 177.436C336.811 175.371 337.733 173.259 338.529 171.083C341.166 164.032 341.024 156.243 338.131 149.293C336.278 145.122 333.53 141.408 330.082 138.413C324.658 133.299 317.978 130.599 310.995 128.439C305.214 126.788 299.293 125.672 293.308 125.104C287.677 124.437 282.046 123.738 276.399 123.214C271.978 122.817 267.54 122.547 263.118 122.42C253.002 122.123 242.885 122.123 232.769 122.42C225.849 122.426 218.959 123.317 212.266 125.072C207.106 126.315 202.305 128.734 198.237 132.14C194.761 135.164 192.009 138.929 190.184 143.156C188.358 147.384 187.507 151.967 187.691 156.567C188.076 163.973 189.55 171.283 192.066 178.262C193.656 183.026 195.374 187.553 196.424 192.397C197.239 195.778 197.771 199.22 198.014 202.689C198.054 203.249 198.054 203.812 198.014 204.372C198.019 204.716 197.888 205.049 197.65 205.298C197.413 205.547 197.087 205.694 196.742 205.706C196.554 205.749 196.358 205.749 196.17 205.707C195.982 205.664 195.805 205.581 195.653 205.463C195.501 205.344 195.377 205.193 195.29 205.021C195.203 204.849 195.156 204.66 195.151 204.467C194.945 203.149 194.897 201.783 194.69 200.465C193.757 194.644 192.282 188.923 190.284 183.376C187.933 176.953 186.175 170.329 185.035 163.587C183.445 153.93 184.669 144.798 190.173 136.476C193.547 131.328 198.319 127.246 203.932 124.707C210.312 121.873 217.147 120.195 224.116 119.752C237.634 118.86 251.19 118.706 264.724 119.291C277.286 119.843 289.804 121.126 302.215 123.135C309.404 124.213 316.381 126.404 322.893 129.63C329.395 132.8 334.898 137.696 338.799 143.782C342.547 149.595 344.227 156.498 343.571 163.38C343.142 167.915 341.903 172.337 339.912 176.435C338.831 178.849 337.813 181.2 336.731 183.678C333.806 190.682 332.085 198.13 331.641 205.706C331.482 207.549 331.403 209.391 331.228 211.233C331.169 211.579 331.242 211.935 331.434 212.229C331.626 212.523 331.921 212.735 332.262 212.821C334.026 213.553 335.71 214.463 337.288 215.537C340.672 217.82 343.175 221.188 344.381 225.084C345.587 228.98 345.425 233.171 343.921 236.962C342.585 240.361 340.633 243.483 338.163 246.174C337.652 246.76 337.273 247.447 337.049 248.191C334.854 254.735 332.627 261.262 330.416 267.806C327.235 277.335 323.863 286.658 321.334 296.394C319.855 301.984 318.598 307.606 317.517 313.292C316.472 319.081 316.591 325.02 317.867 330.763C319.187 336.852 320.048 343.032 320.443 349.25C320.579 350.872 320.466 352.505 320.109 354.094C320.012 354.967 319.659 355.792 319.092 356.465C318.526 357.138 317.773 357.628 316.928 357.874C316.026 358.035 315.096 357.934 314.25 357.582C313.403 357.23 312.677 356.642 312.156 355.888C311.273 354.792 310.599 353.543 310.168 352.204C308.864 348.088 307.88 343.877 307.225 339.609C306.99 338.056 306.622 336.526 306.128 335.035C305.46 333.256 304.68 332.859 302.867 333.336C301.627 333.713 300.441 334.247 299.336 334.924C293.056 338.541 286.535 341.725 279.819 344.453C279.372 344.693 278.878 344.834 278.372 344.866C278.09 344.876 277.812 344.8 277.576 344.646C277.339 344.493 277.156 344.27 277.052 344.009C276.912 343.745 276.87 343.441 276.934 343.15C276.998 342.859 277.164 342.6 277.402 342.42C277.747 342.125 278.14 341.889 278.563 341.721C285.45 338.688 292.115 335.21 298.684 331.541C299.862 330.877 301.125 330.375 302.438 330.048C303.719 329.639 305.109 329.741 306.316 330.334C307.523 330.926 308.453 331.962 308.911 333.225C309.73 335.32 310.29 337.506 310.582 339.736C311.149 343.282 311.94 346.788 312.952 350.234C313.251 351.314 313.701 352.345 314.288 353.3C314.566 353.795 314.973 354.206 315.465 354.491C315.558 354.556 315.665 354.599 315.778 354.615C315.89 354.632 316.005 354.622 316.113 354.587C316.221 354.551 316.319 354.491 316.4 354.411C316.481 354.331 316.542 354.233 316.578 354.125C316.871 353.458 317.033 352.741 317.055 352.013C317.163 349.017 316.987 346.018 316.53 343.056C315.91 338.1 315.051 333.193 314.081 328.285C313.158 323.367 313.158 318.321 314.081 313.404C316.58 299.896 320.187 286.616 324.865 273.698C327.124 267.186 329.319 260.643 331.546 254.115C331.721 253.607 331.88 253.099 332.039 252.527C331.914 252.477 331.776 252.467 331.645 252.498C331.514 252.53 331.396 252.601 331.307 252.702C324.821 257.256 317.762 260.935 310.311 263.645C307.653 264.71 304.921 265.581 302.135 266.249C301.649 266.325 301.199 266.551 300.848 266.896C300.497 267.241 300.263 267.687 300.179 268.171C296.123 283.164 291.463 297.998 286.929 312.848C285.942 316.081 284.79 319.261 283.478 322.377C281.159 328.14 277.213 333.106 272.121 336.671C270.899 337.474 269.754 338.389 268.701 339.403C267.724 340.343 266.96 341.48 266.458 342.738C266.108 343.707 266.251 343.897 267.285 344.024C268.677 344.179 270.042 344.521 271.341 345.041C272.82 345.546 274.096 346.515 274.979 347.803C275.861 349.09 276.304 350.629 276.24 352.188C276.24 354.538 276.24 356.953 276.24 359.255C276.204 365.543 275.736 371.82 274.841 378.044C274.684 379.381 274.331 380.687 273.791 381.919C273.608 382.491 273.258 382.995 272.787 383.368C272.315 383.74 271.743 383.964 271.144 384.01C270.544 384.056 269.945 383.922 269.422 383.626C268.899 383.33 268.476 382.885 268.208 382.348C267.616 381.374 267.216 380.296 267.031 379.172C266.33 375.535 265.904 371.85 265.758 368.149C265.329 361.542 264.709 354.951 263.961 348.376C263.834 347.185 263.818 347.153 262.609 347.264C259.141 347.598 255.722 348.281 252.286 348.853C244.928 350.052 237.467 350.504 230.017 350.203C226.836 350.076 223.735 349.933 220.585 349.821C215.028 349.55 209.492 348.934 204.011 347.979C196.36 346.772 188.694 345.565 181.17 343.723C173.24 341.879 165.427 339.567 157.772 336.798C156.182 336.242 156.436 336.02 155.641 337.608C153.287 342.261 151.012 346.963 148.69 351.632C147.211 354.586 145.604 357.493 143.918 360.32C143.057 361.843 141.986 363.238 140.737 364.465C140.266 365.07 139.614 365.509 138.876 365.718C138.137 365.926 137.351 365.894 136.633 365.624C135.915 365.282 135.329 364.715 134.965 364.01C134.6 363.305 134.476 362.499 134.613 361.717C134.703 359.753 135.094 357.814 135.774 355.968C137.826 349.901 140.355 344.024 142.741 338.1C143.743 335.591 144.761 333.113 145.652 330.556C147.297 325.747 147.49 320.561 146.208 315.643C144.936 310.291 143.027 305.113 141.437 299.856C139.316 293.166 137.72 286.321 136.665 279.384C136.247 276.382 135.987 273.36 135.885 270.331C135.799 265.998 134.779 261.735 132.895 257.832C131.048 254.364 129.602 250.698 128.585 246.905C127.725 243.296 127.52 239.563 127.98 235.882C128.426 232.197 130.143 228.781 132.836 226.221C135.53 223.662 139.032 222.12 142.741 221.858C143.744 221.776 144.705 221.425 145.524 220.842C154.125 214.745 164.032 210.737 174.458 209.137C179.006 208.351 183.64 208.191 188.232 208.66C192.043 208.998 195.688 210.371 198.772 212.63C201.857 214.89 204.262 217.949 205.729 221.477C208.101 226.617 209.014 232.309 208.369 237.931C208.029 241.86 206.87 245.674 204.965 249.128ZM301.881 262.85C302.326 262.901 302.777 262.852 303.201 262.707C306.014 261.922 308.772 260.951 311.456 259.801C319.807 256.37 327.824 252.4 334.234 245.777C336.978 243.033 339.184 239.801 340.739 236.248C342.117 233.045 342.312 229.458 341.29 226.125C340.268 222.792 338.094 219.93 335.156 218.047C332.226 216.039 328.894 214.69 325.39 214.092C319.816 213.314 314.158 213.346 308.593 214.187C302.582 215.136 296.788 217.141 291.478 220.111C282.05 224.889 274.593 232.812 270.403 242.505C267.945 248.412 266.055 254.538 264.756 260.802C262.641 270.506 260.557 280.21 257.71 289.723C256.554 293.712 255.037 297.587 253.177 301.301C251.275 305.301 248.46 308.799 244.956 311.514C241.453 314.228 237.36 316.083 233.008 316.929C229.478 317.635 225.887 317.986 222.287 317.978C211.55 318.115 200.829 317.125 190.3 315.023C184.894 314.049 179.67 312.255 174.808 309.703C168.445 306.272 163.769 301.428 161.733 294.377C160.48 290.122 159.738 285.735 159.522 281.306C159.188 273.968 158.727 266.63 158.806 259.261C158.806 258.896 158.933 258.483 158.552 258.118C158.09 258.118 157.804 258.499 157.438 258.721C156.26 259.509 154.935 260.049 153.541 260.309C151.84 260.558 150.106 260.459 148.443 260.02C146.781 259.58 145.226 258.809 143.87 257.752C133.706 250.319 132.736 235.898 138.844 227.306C139.035 227.02 139.432 226.798 139.273 226.178C137.523 226.819 135.948 227.859 134.672 229.216C133.396 230.573 132.455 232.208 131.925 233.992C130.918 237.807 130.863 241.81 131.766 245.65C132.673 249.362 134.063 252.94 135.901 256.291C138.089 260.8 139.262 265.734 139.337 270.744C139.427 273.829 139.709 276.905 140.18 279.956C141.26 286.656 142.823 293.269 144.856 299.745C146.447 305.113 148.435 310.386 149.628 315.881C150.314 318.895 150.534 321.996 150.28 325.077C149.779 328.748 148.778 332.333 147.306 335.734C144.856 341.944 142.359 348.138 139.894 354.332C139.139 356.146 138.564 358.029 138.176 359.954C137.945 360.742 137.945 361.58 138.176 362.368C138.781 362.071 139.285 361.601 139.623 361.018C140.803 359.391 141.866 357.682 142.805 355.904C145.843 350.584 148.388 345.025 151.092 339.53C151.903 337.942 152.682 336.242 153.652 334.622C154.623 333.002 155.243 332.748 157.136 333.431C158.281 333.86 159.442 334.289 160.619 334.67C166.87 336.719 173.169 338.561 179.563 340.054C195.195 343.965 211.182 346.285 227.282 346.979C233.738 347.299 240.21 347.119 246.639 346.439C251.92 345.756 257.185 344.85 262.466 344.104C262.715 344.092 262.951 343.988 263.128 343.812C263.304 343.636 263.409 343.4 263.42 343.151C263.964 340.605 265.327 338.307 267.301 336.607C268.509 335.513 269.784 334.494 271.119 333.558C274.979 330.673 278.03 326.845 279.978 322.44C281.526 319.074 282.833 315.603 283.891 312.053C287.82 299.189 291.844 286.34 295.487 273.38C296.028 271.506 296.552 269.616 297.077 267.695C296.277 267.503 295.444 267.503 294.644 267.695C291.59 268.219 288.464 268.155 285.434 267.504C277.926 265.566 273.886 261.31 273.011 254.56C272.174 248.907 273.026 243.134 275.461 237.963C278.213 232.277 282.619 228.72 289.204 228.323C298.207 227.798 302.692 233.23 304.06 239.154C304.421 240.803 304.607 242.485 304.617 244.173C304.552 249.618 303.776 255.032 302.31 260.278C302.037 261.108 301.892 261.976 301.881 262.85ZM262.72 255.497C262.036 255.338 261.511 255.195 260.955 255.1C255.388 254.02 249.82 253.146 244.19 252.289C231.23 250.301 218.04 250.338 205.093 252.4C204.735 252.442 204.391 252.559 204.081 252.742C203.772 252.925 203.504 253.171 203.295 253.464C199.639 258.389 195.245 262.722 190.268 266.313C186.279 269.33 181.848 271.714 177.13 273.38C175.749 273.873 174.282 274.078 172.819 273.984C172.167 273.998 171.522 273.85 170.94 273.555C170.359 273.26 169.86 272.826 169.487 272.292C169.114 271.757 168.879 271.139 168.802 270.492C168.726 269.846 168.811 269.19 169.05 268.584C169.358 267.621 169.832 266.718 170.449 265.916C171.732 264.279 173.249 262.84 174.951 261.643C182.193 256.476 190.339 252.705 198.969 250.526C199.661 250.364 200.308 250.047 200.859 249.598C201.41 249.15 201.852 248.582 202.15 247.937C204.455 243.284 205.491 238.108 205.156 232.928C205.122 229.382 204.313 225.886 202.786 222.684C201.622 219.898 199.759 217.457 197.378 215.597C194.996 213.736 192.175 212.518 189.187 212.059C185.899 211.583 182.565 211.519 179.261 211.869C168.975 212.725 159.053 216.078 150.36 221.636C150.058 221.811 149.676 221.938 149.565 222.319C149.66 222.43 149.708 222.478 149.755 222.494L150.853 222.907C154.745 224.321 158.057 226.986 160.269 230.482C162.31 233.473 163.601 236.91 164.036 240.502C164.47 244.095 164.035 247.739 162.767 251.129C162.087 253.176 161.785 255.328 161.876 257.482C161.876 264.2 162.258 270.934 162.496 277.653C162.675 282.134 163.207 286.595 164.087 290.994C164.699 294.201 166.015 297.233 167.94 299.872C169.865 302.511 172.352 304.691 175.221 306.257C178.522 308.182 182.07 309.652 185.767 310.624C192.549 312.365 199.466 313.529 206.445 314.102C213.844 314.881 221.301 314.95 228.713 314.309C233.398 314.023 237.915 312.461 241.774 309.793C245.632 307.125 248.685 303.452 250.6 299.173C252.148 295.995 253.435 292.696 254.449 289.31C257.901 278.288 260.175 266.948 262.72 255.497ZM301.531 245.174C301.575 243.575 301.437 241.976 301.117 240.409C300.922 238.64 300.26 236.955 299.198 235.526C298.136 234.097 296.712 232.976 295.073 232.277C291.399 230.689 284.941 230.864 281.124 235.279C279.735 236.817 278.626 238.585 277.847 240.504C276.42 244.355 275.813 248.461 276.065 252.559C276.384 258.912 279.772 263.089 287.2 264.518C290.6 264.937 294.047 264.781 297.395 264.057C298.079 263.962 298.302 263.486 298.445 262.914C298.763 261.612 299.113 260.309 299.431 259.007C300.617 254.482 301.321 249.846 301.531 245.174ZM160.937 243.776C160.958 240.203 160.054 236.685 158.313 233.564C157.199 231.413 155.603 229.548 153.65 228.113C151.697 226.678 149.439 225.712 147.051 225.289C146.54 225.159 146.003 225.168 145.496 225.316C144.99 225.464 144.533 225.746 144.172 226.131C138.892 231.038 137.524 237.153 138.828 243.966C139.619 248.388 142.086 252.335 145.715 254.989C147.281 256.174 149.15 256.895 151.108 257.069C152.635 257.191 154.162 256.84 155.483 256.064C156.803 255.288 157.852 254.125 158.488 252.733C160.004 249.984 160.844 246.913 160.937 243.776ZM198.428 254.226C198.328 254.172 198.216 254.144 198.102 254.144C197.988 254.144 197.876 254.172 197.776 254.226C190.085 256.401 182.837 259.912 176.366 264.597C175.184 265.473 174.116 266.492 173.185 267.631C172.743 268.138 172.393 268.719 172.151 269.346C171.817 270.299 172.151 270.744 173.074 270.855C173.517 270.91 173.966 270.91 174.41 270.855C175.855 270.617 177.258 270.173 178.577 269.537C186.03 266.179 192.655 261.229 197.983 255.036C198.109 254.94 198.214 254.818 198.291 254.678C198.368 254.539 198.414 254.385 198.428 254.226ZM271.007 380.029C271.501 378.875 271.791 377.645 271.866 376.392C272.565 370.944 272.98 365.462 273.107 359.97C273.202 357.334 273.234 354.697 273.234 352.029C273.3 351.585 273.266 351.132 273.134 350.704C273.002 350.275 272.775 349.881 272.471 349.551C271.365 348.508 269.996 347.783 268.51 347.455C267.365 347.233 267.254 347.312 267.381 348.503C268.192 355.634 268.796 362.797 269.274 369.928C269.4 372.561 269.703 375.182 270.18 377.774C270.213 378.594 270.502 379.382 271.007 380.029Z" fill="#DBE125"></path><path d="M66.201 236.835C66.0205 236.159 65.701 235.527 65.2629 234.98C64.8248 234.433 64.2776 233.983 63.656 233.659C62.5667 233.071 61.3822 232.678 60.1567 232.5C57.329 232.03 54.4775 231.717 51.6151 231.563C45.3481 231.086 39.0652 230.657 32.7983 230.165C30.2165 230.007 27.6607 229.56 25.1793 228.831C23.2843 228.278 21.528 227.33 20.0257 226.051C18.8516 225.141 18.0026 223.876 17.6043 222.446C17.2061 221.016 17.2799 219.496 17.8148 218.11C18.9752 214.612 21.3957 211.669 24.6066 209.852C29.3473 207.032 34.5662 205.104 40.0037 204.166C48.1484 202.761 56.4111 202.155 64.674 202.355C77.2119 202.389 89.6919 204.055 101.799 207.31C104.806 208.017 107.716 209.084 110.467 210.487C111.765 211.157 112.981 211.972 114.094 212.917C116.261 214.719 117.631 217.3 117.908 220.103C118.185 222.905 117.346 225.704 115.573 227.894C113.792 230.076 111.59 231.879 109.1 233.198C105.419 235.138 101.459 236.493 97.3609 237.217C89.038 238.874 80.5979 239.878 72.118 240.218C71.9487 240.234 71.7783 240.234 71.609 240.218C70.9092 240.218 70.591 240.393 70.7183 241.187C70.8455 241.981 70.8614 243.093 70.9569 244.046C71.2566 248.581 71.1821 253.134 70.7342 257.657C70.4161 262.422 70.0502 267.282 69.7957 272.094C69.2231 283.212 69.2867 294.202 69.1913 305.24C69.2348 305.769 69.2348 306.3 69.1913 306.828C69.1408 307.213 68.9512 307.566 68.6582 307.82C68.3652 308.075 67.9891 308.213 67.6007 308.21C67.2358 308.171 66.8956 308.008 66.6376 307.747C66.3796 307.487 66.2197 307.145 66.1851 306.781C66.1611 306.506 66.1611 306.23 66.1851 305.955C66.3123 295.06 66.1851 284.18 66.694 273.301C67.0122 267.472 67.5053 261.659 67.8393 255.831C68.222 251.071 68.1741 246.287 67.6961 241.537C67.6166 240.806 67.5371 240.25 66.5668 240.234C61.681 239.98 56.7819 240.236 51.9491 240.997C47.107 241.943 42.7569 244.571 39.6697 248.414C36.1254 252.844 33.1491 257.699 30.81 262.866C26.579 271.554 23.1274 280.575 19.135 289.358C17.3058 293.376 15.572 297.458 13.7905 301.524C13.3611 302.477 12.7248 302.826 11.9772 302.572C11.6109 302.417 11.3162 302.13 11.1513 301.768C10.9864 301.407 10.9633 300.996 11.0865 300.618C11.274 299.975 11.5025 299.343 11.7705 298.728C15.1743 290.057 19.1509 281.623 22.7297 273.031C25.0838 267.377 27.6288 261.913 30.5237 256.434C32.2362 253.213 34.2267 250.146 36.4726 247.27C38.6989 244.325 41.5445 241.903 44.8093 240.174C48.074 238.446 51.6784 237.452 55.3689 237.264C58.5422 236.988 61.7285 236.893 64.9126 236.978C65.3473 237.035 65.7893 236.986 66.201 236.835ZM63.6242 205.627C55.5051 205.392 47.3851 206.064 39.4152 207.628C34.7706 208.495 30.3202 210.19 26.2768 212.631C23.9493 213.932 22.1242 215.972 21.0914 218.428C20.8057 218.936 20.6275 219.497 20.5677 220.076C20.5079 220.655 20.5678 221.241 20.7438 221.796C20.9197 222.352 21.2079 222.865 21.5906 223.305C21.9732 223.744 22.4421 224.101 22.9683 224.352C24.8359 225.516 26.9378 226.253 29.124 226.512C33.8958 227.29 38.8426 227.433 43.7098 227.83C48.9111 228.259 54.1442 228.466 59.3295 229.148C64.0218 229.784 67.887 231.499 69.573 236.343C69.6503 236.587 69.8142 236.794 70.0339 236.926C70.2537 237.058 70.5141 237.105 70.766 237.058H72.452C78.0069 236.831 83.5452 236.301 89.0421 235.47C93.6765 234.923 98.2504 233.95 102.705 232.563C106.309 231.469 109.587 229.505 112.249 226.846C113.368 225.804 114.149 224.452 114.492 222.963C114.835 221.474 114.724 219.917 114.174 218.492C113.393 216.604 111.983 215.044 110.181 214.076C107.617 212.559 104.848 211.42 101.958 210.693C89.475 207.248 76.5749 205.543 63.6242 205.627Z" fill="#DBE125"></path><path d="M117.562 300.174C117.634 300.555 117.564 300.95 117.365 301.284C117.166 301.618 116.851 301.867 116.48 301.984C116.125 302.076 115.748 302.043 115.415 301.889C115.082 301.736 114.812 301.472 114.651 301.143C114.484 300.792 114.356 300.425 114.269 300.047C110.595 285.991 106.316 272.078 102.864 257.991C101.656 253.226 100.494 248.287 99.3174 243.442C99.2597 243.223 99.2172 243 99.1902 242.775C99.1125 242.416 99.1766 242.04 99.3691 241.727C99.5617 241.413 99.8679 241.186 100.224 241.092C100.552 241.019 100.896 241.069 101.189 241.233C101.483 241.398 101.705 241.664 101.815 241.981C102.002 242.452 102.156 242.935 102.276 243.427C105.457 255.052 108.304 266.773 111.613 278.367C113.553 285.165 115.351 291.994 117.212 298.824C117.371 299.221 117.466 299.713 117.562 300.174Z" fill="#DBE125"></path><path d="M271.198 26.6822C271.176 26.8562 271.176 27.0323 271.198 27.2063C271.906 31.1773 272.304 35.1968 272.391 39.2292C272.592 44.447 272.224 49.6712 271.294 54.8096C270.716 58.9715 268.867 62.8541 265.997 65.9271C265.746 66.2257 265.469 66.502 265.17 66.753C262.578 68.7467 259.484 69.9837 256.231 70.3265C251.116 70.6536 245.996 69.7608 241.295 67.7218C235.447 65.2579 229.898 62.141 224.753 58.4307C223.019 57.1919 221.571 55.6672 219.854 54.2537C218.912 54.7503 218.045 55.3758 217.277 56.1119C215.066 58.0178 212.632 59.6378 210.31 61.3848C207.606 63.386 204.934 65.4348 202.102 67.2612C200.035 68.5954 197.919 69.8977 195.963 71.3906C195.522 71.7751 194.957 71.9892 194.372 71.9941C194.117 72.0255 193.858 71.9844 193.626 71.8758C193.393 71.7671 193.196 71.5952 193.056 71.3798C192.917 71.1643 192.841 70.914 192.837 70.6575C192.834 70.401 192.903 70.1487 193.036 69.9295C193.31 69.436 193.733 69.0415 194.245 68.8018C197.501 66.7781 200.624 64.5501 203.598 62.1313C205.188 60.8766 206.906 59.8284 208.528 58.6213C211.248 56.5566 213.841 54.3014 216.704 52.4114C216.926 52.2431 217.133 52.0572 217.324 51.8555C217.39 51.8051 217.444 51.7402 217.481 51.6658C217.517 51.5915 217.537 51.5096 217.537 51.4267C217.537 51.3437 217.517 51.2619 217.481 51.1875C217.444 51.1132 217.39 51.0483 217.324 50.9979C216.138 49.4309 215.215 47.6823 214.589 45.8203C213.523 43.0683 213.568 40.0106 214.716 37.2915C215.598 35.0336 216.942 32.9837 218.661 31.2722C221.379 28.5918 224.497 26.3471 227.902 24.6175C230.654 23.1246 233.549 21.9176 236.412 20.6311C239.275 19.3446 242.233 18.5664 245.144 17.5817C246.745 17.0021 248.481 16.9027 250.139 17.2958C250.658 17.366 251.155 17.5529 251.592 17.8425C252.029 18.1321 252.394 18.5169 252.661 18.968C252.927 19.419 253.088 19.9245 253.13 20.4464C253.173 20.9683 253.096 21.493 252.906 21.9811C252.089 24.1354 250.851 26.106 249.264 27.7781C248.197 29.0767 247.044 30.3024 245.812 31.4469C242.631 34.6233 239.338 37.6727 235.95 40.595C232.117 43.8985 228.268 47.1544 224.419 50.4261C223.83 50.9343 223.178 51.3632 222.494 51.8555C224.916 54.4548 227.715 56.6765 230.797 58.4466C232.912 59.7172 235.012 61.0037 237.159 62.1313C240.65 63.9452 244.323 65.3827 248.119 66.4195C251.549 67.3643 255.171 67.3643 258.601 66.4195C260.253 65.9434 261.781 65.1106 263.075 63.9799C264.37 62.8491 265.4 61.4481 266.092 59.876C267.442 57.0282 268.272 53.9624 268.542 50.8232C269.304 45.221 269.395 39.5481 268.812 33.9245C268.542 31.8122 268.478 29.684 268.033 27.5716C267.81 26.5869 267.556 25.6181 267.349 24.6334C267.298 24.4143 267.196 24.21 267.053 24.0364C266.909 23.8629 266.728 23.7247 266.522 23.6328C264.056 22.1717 261.75 20.4564 259.428 18.8682C257.701 17.614 256.14 16.1465 254.783 14.5006C251.888 10.9112 252.175 6.82946 255.722 3.55772C257.181 2.03107 259.038 0.941284 261.084 0.410981C263.129 -0.119322 265.283 -0.0691041 267.301 0.555984C269.01 0.959186 270.568 1.8417 271.791 3.09951C273.014 4.35733 273.851 5.93803 274.204 7.65533C274.542 9.5386 274.405 11.476 273.807 13.2935C273.024 15.6939 271.956 17.992 270.626 20.1387C269.767 21.6317 269.767 21.6317 271.278 22.5687C275.334 25.0781 279.597 27.2222 283.812 29.4616C287.566 31.4628 291.383 33.3686 295.121 35.4492C302.183 39.3562 309.182 43.3903 316.244 47.3291C323.004 51.109 329.812 54.7937 336.572 58.5896C339.944 60.4954 343.253 62.5125 346.545 64.5454C355.007 69.7548 363.628 74.71 372.504 79.1888C378.791 82.4033 385.348 85.0606 392.1 87.1299C395.281 88.0828 395.202 88.3846 395.393 84.7634C395.426 81.4783 396.544 78.296 398.574 75.7106C399.208 74.8408 400.045 74.1387 401.013 73.6655C401.98 73.1922 403.049 72.962 404.126 72.9948C405.203 73.0277 406.255 73.3226 407.192 73.8541C408.129 74.3855 408.922 75.1373 409.501 76.0441C414.194 82.397 409.422 89.3216 404.348 90.7987C402.695 91.3196 400.975 91.5926 399.242 91.6087C398.431 91.6087 398.144 91.8945 398.16 92.6887C398.272 95.6586 398.335 98.6286 398.415 101.599C398.415 101.996 398.494 102.393 398.494 102.774C398.494 109.127 398.494 115.337 398.653 121.626C398.797 129.408 398.812 137.206 398.908 145.005C398.908 147.752 398.908 150.5 398.987 153.232C399.083 157.726 398.987 162.221 399.258 166.684C399.465 170.273 399.258 173.878 399.592 177.452C399.926 181.025 399.671 184.631 399.91 188.204C400.133 191.381 399.91 194.557 399.91 197.734C399.91 202.276 399.624 206.818 399.608 211.345C399.608 215.395 399.258 219.413 399.306 223.447C399.353 227.481 398.956 231.626 398.956 235.708C398.956 238.741 398.637 241.743 398.558 244.761C398.399 250.764 397.779 256.736 397.301 262.708C396.901 267.18 396.205 271.621 395.218 276.001C394.661 278.542 394.104 278.209 396.967 278.987C401.769 280.188 406.356 282.122 410.567 284.72C412.364 285.864 414.082 287.135 415.768 288.437C418.36 290.403 420.83 292.525 423.165 294.79C425.086 296.524 426.625 298.639 427.682 301C428.398 302.81 427.952 303.541 426.091 304.033C423.201 304.722 420.275 305.252 417.327 305.621C409.469 306.749 401.564 307.098 393.675 307.67C392.434 307.766 391.193 307.781 389.969 307.813C385.086 307.94 380.202 308.178 375.319 308.274C371.55 308.353 367.796 308.051 364.042 307.972C358.048 307.59 352.079 306.879 346.163 305.844C345.269 305.739 344.398 305.487 343.587 305.097C343.26 304.934 342.999 304.663 342.848 304.331C342.697 303.998 342.666 303.624 342.76 303.271C342.824 302.935 343.007 302.633 343.276 302.42C343.544 302.207 343.88 302.098 344.223 302.111C344.672 302.111 345.12 302.159 345.559 302.254C352.621 303.827 359.816 304.725 367.048 304.938C374.908 305.198 382.777 305.044 390.621 304.478C391.734 304.398 392.864 304.351 393.993 304.335C398.542 304.335 403.075 303.843 407.593 303.414C412.364 302.953 417.232 302.747 421.988 301.826L424.055 301.381C423.41 300.161 422.602 299.034 421.654 298.03C416.79 292.863 411.077 288.566 404.761 285.324C401.636 283.791 398.357 282.593 394.979 281.75C393.977 281.496 393.738 281.878 393.389 282.656C392.299 285.671 390.795 288.52 388.919 291.121C386.718 294.03 384.027 296.535 380.966 298.522C378.276 300.161 375.245 301.16 372.106 301.444C368.989 301.833 365.841 301.015 363.31 299.157C362.057 298.374 361.083 297.214 360.529 295.845C359.975 294.476 359.868 292.967 360.224 291.534C360.574 289.811 361.296 288.185 362.34 286.769C364.002 284.575 366.09 282.738 368.48 281.369C374.011 278.321 380.287 276.88 386.597 277.208C387.774 277.208 388.951 277.43 390.128 277.558C391.305 277.685 391.448 277.669 391.718 276.35C392.386 273.569 392.864 270.747 393.15 267.901C393.563 264.169 394.247 260.452 394.422 256.704C394.661 251.336 395.329 245.984 395.345 240.6C395.345 237.788 395.774 234.993 395.727 232.198C395.727 227.433 396.204 222.796 396.013 218.079C396.013 216.697 396.156 215.283 396.204 213.886C396.347 208.502 396.506 203.118 396.586 197.734C396.586 193.636 396.745 189.538 396.586 185.457C396.395 181.867 396.586 178.278 396.268 174.704C395.949 171.131 396.14 167.748 395.965 164.286C395.584 156.885 395.711 149.483 395.599 142.051C395.599 138.35 395.695 134.649 395.599 130.933C395.329 123.532 395.472 116.131 395.265 108.698C395.106 103.203 395.265 97.7074 395.075 92.2281C395.075 91.2275 394.741 90.8622 393.802 90.6399C386.766 88.9202 379.955 86.3885 373.506 83.0958C366.889 79.9194 360.543 76.4094 354.244 72.7247C347.945 69.0401 342.123 65.4348 335.999 61.8931C330.846 58.9072 325.597 56.1119 320.396 53.2214C316.154 50.8708 311.95 48.5044 307.782 46.122C299.734 41.548 291.685 36.958 283.446 32.7333C279.66 30.7798 275.922 28.731 272.137 26.7457C271.837 26.6306 271.51 26.6084 271.198 26.6822ZM220.299 49.3938C220.532 49.2564 220.756 49.1025 220.967 48.9332C223.798 46.4714 226.741 44.1685 229.604 41.6909C232.785 38.9909 235.966 36.1162 239.052 33.3369C241.549 31.1613 243.903 28.8271 246.098 26.3487C247.338 24.991 248.406 23.4869 249.28 21.8699C249.836 20.7899 249.614 20.3929 248.421 20.4564C246.96 20.5313 245.516 20.7983 244.126 21.2505C239.835 22.7173 235.633 24.4355 231.544 26.3963C227.344 28.3317 223.537 31.0238 220.315 34.3374C218.477 36.0417 217.343 38.3695 217.134 40.865C217.072 42.4248 217.319 43.9815 217.863 45.4452C218.406 46.909 219.234 48.2509 220.299 49.3938ZM390.494 281.274C386.234 280.436 381.843 280.534 377.626 281.56C374.429 282.218 371.399 283.514 368.718 285.372C366.339 286.91 364.573 289.23 363.724 291.931C363.392 292.953 363.466 294.064 363.931 295.033C364.396 296.003 365.215 296.757 366.221 297.14C372.059 299.745 377.085 297.76 381.729 294.266C383.835 292.573 385.646 290.544 387.09 288.262C388.452 286.027 389.581 283.659 390.462 281.195L390.494 281.274ZM271.198 10.2124C271.242 8.85404 270.866 7.5152 270.12 6.37832C269.374 5.24145 268.296 4.36188 267.031 3.85948C264.837 3.11225 262.439 3.23738 260.334 4.20889C259.448 4.56114 258.641 5.08683 257.961 5.75507C257.28 6.4233 256.741 7.22059 256.374 8.10003C256.118 8.59674 255.999 9.1519 256.027 9.70956C256.054 10.2672 256.229 10.8077 256.533 11.2765C257.133 12.2867 257.854 13.2201 258.68 14.0559C260.983 16.1867 263.511 18.0612 266.22 19.6464C266.919 20.0752 267.349 19.9482 267.699 19.2811C268.887 17.3804 269.853 15.3501 270.578 13.23C270.907 12.225 271.12 11.186 271.214 10.133L271.198 10.2124ZM400.117 88.3687L401.707 88.2099C402.928 88.0889 404.095 87.6536 405.096 86.9464C406.097 86.2392 406.897 85.2845 407.418 84.1758C407.786 83.5243 408.014 82.8032 408.087 82.0586C408.159 81.314 408.076 80.5625 407.84 79.8521C407.605 79.1418 407.224 78.4884 406.721 77.9338C406.218 77.3792 405.605 76.9357 404.92 76.6318C404.587 76.4861 404.227 76.4109 403.863 76.4109C403.499 76.4109 403.138 76.4861 402.805 76.6318C402.17 76.9357 401.602 77.3635 401.135 77.8899C400.668 78.4164 400.311 79.0308 400.085 79.697C399.129 81.9756 398.59 84.4071 398.494 86.8758C398.351 88.2575 398.431 88.3211 400.133 88.2893L400.117 88.3687Z" fill="#DBE125"></path><path d="M219.376 89.6868C219.341 89.0666 219.485 88.4494 219.79 87.908C222.876 81.4439 226.025 75.0116 229.524 68.754C229.668 68.4546 229.827 68.163 230.001 67.8805C230.169 67.5807 230.448 67.3581 230.778 67.2602C231.107 67.1623 231.462 67.1968 231.767 67.3564C232.094 67.5164 232.356 67.7834 232.509 68.1129C232.663 68.4424 232.698 68.8144 232.61 69.167C232.165 70.247 231.656 71.3111 231.115 72.3434C228.395 77.5528 225.945 82.9051 223.4 88.2256C223.113 89.0212 222.676 89.7544 222.112 90.3856C221.887 90.6389 221.59 90.8183 221.261 90.9005C220.932 90.9826 220.585 90.9637 220.267 90.8462C220.022 90.7604 219.807 90.605 219.649 90.3991C219.49 90.1932 219.396 89.9456 219.376 89.6868Z" fill="#DBE125"></path><path d="M245.717 94.2926C246.034 87.986 246.783 81.7084 247.959 75.504C247.999 75.2146 248.057 74.9281 248.134 74.6464C248.453 73.7093 249.121 73.2487 249.884 73.4234C250.648 73.5981 251.045 74.2493 250.902 75.2499C250.727 76.5363 250.425 77.791 250.329 79.0775C250.011 84.1121 249.216 89.0992 249.009 94.1497C249.01 94.4803 248.978 94.8101 248.914 95.1344C248.818 95.4779 248.608 95.7791 248.32 95.9894C248.031 96.1998 247.68 96.307 247.323 96.2938C246.944 96.2993 246.576 96.1695 246.284 95.9278C245.993 95.6862 245.797 95.3485 245.733 94.9756C245.705 94.749 245.699 94.5203 245.717 94.2926Z" fill="#DBE125"></path><path d="M142.677 174.879C140.913 172.433 138.765 170.287 136.315 168.526C129.517 163.498 121.69 160.032 113.394 158.377C107.286 157 100.94 157.071 94.8637 158.584C94.4932 158.71 94.1085 158.79 93.7184 158.822C93.4049 158.85 93.0908 158.774 92.8258 158.604C92.5607 158.434 92.3599 158.181 92.2551 157.885C92.14 157.596 92.118 157.279 92.1921 156.977C92.2662 156.675 92.4328 156.404 92.6686 156.201C93.0482 155.863 93.5082 155.628 94.0048 155.518C98.185 154.367 102.532 153.937 106.857 154.248C118.011 155.126 128.705 159.061 137.762 165.62C141.022 168.027 143.892 170.919 146.272 174.196C146.449 174.418 146.604 174.658 146.733 174.911C146.945 175.199 147.074 175.54 147.109 175.896C147.144 176.251 147.083 176.61 146.932 176.935C146.781 177.259 146.546 177.537 146.251 177.739C145.955 177.942 145.611 178.062 145.254 178.087C143.759 178.373 142.248 178.548 140.753 178.722C134.375 179.381 127.947 179.381 121.57 178.722C115.681 178.245 109.907 176.824 104.471 174.514C97.3713 171.595 91.2871 166.657 86.9743 160.315C86.8486 160.038 86.6411 159.806 86.3795 159.649C86.118 159.493 85.8149 159.421 85.5109 159.441C82.4 159.662 79.3254 160.243 76.349 161.173C75.6333 161.395 75.6333 161.919 75.5856 162.475C75.2833 165.334 74.997 168.177 74.663 171.02C74.5039 172.29 74.3131 173.577 74.0745 174.831C73.9313 175.609 74.0745 175.943 74.9652 175.991C78.3858 176.241 81.78 176.772 85.1133 177.579C86.4789 177.894 87.8107 178.341 89.0898 178.913C91.2226 179.695 93.0476 181.141 94.2961 183.036C95.5446 184.932 96.1505 187.178 96.0248 189.443C95.9115 192.529 95.5336 195.601 94.8955 198.623C94.0609 203.714 92.9296 208.752 91.5075 213.711C91.0143 215.443 90.3091 217.107 89.4079 218.666C88.7258 219.937 87.719 221.004 86.4897 221.76C85.2604 222.516 83.8525 222.934 82.4092 222.97C75.0752 223.307 67.7257 223.009 60.443 222.081C59.1089 221.869 57.8056 221.496 56.5619 220.969C55.3769 220.511 54.3299 219.756 53.522 218.777C52.714 217.798 52.1724 216.628 51.9492 215.379C51.4084 212.79 51.138 210.169 50.7721 207.564C49.8496 200.83 48.9588 194.112 48.5453 187.331C48.5055 186.542 48.5055 185.752 48.5453 184.964C48.5453 183.948 49.1338 183.376 49.9291 183.376C50.7244 183.376 51.2652 183.916 51.3288 184.964C51.5674 188.141 51.9173 191.317 52.3468 194.493C53.2057 201.005 53.9374 207.517 54.9713 213.997C55.0653 215.047 55.4923 216.04 56.1903 216.831C56.8883 217.622 57.8209 218.171 58.8524 218.396C60.6936 218.909 62.5787 219.249 64.4831 219.413C69.8753 219.889 75.2674 219.794 80.6596 219.889C80.8823 219.889 81.1049 219.889 81.3276 219.889C82.5935 219.949 83.8455 219.604 84.9012 218.904C85.957 218.204 86.7613 217.186 87.197 215.998C88.4501 212.991 89.3831 209.861 89.9805 206.659C91.0954 201.878 91.966 197.044 92.5891 192.175C92.6846 191.349 92.7641 190.586 92.78 189.665C92.9051 187.994 92.4739 186.328 91.5535 184.927C90.6331 183.525 89.275 182.466 87.6901 181.915C85.5684 181.073 83.3677 180.445 81.1209 180.041C78.9258 179.58 76.6831 179.405 74.4562 179.119C73.5337 178.992 73.2792 179.374 73.1201 180.152C72.8926 181.226 72.6059 182.286 72.2612 183.328C71.788 184.762 71.0124 186.078 69.9866 187.188C69.3441 187.969 68.5517 188.615 67.6557 189.087C66.7598 189.559 65.7785 189.847 64.7694 189.935C62.8028 190.126 60.8178 189.921 58.9319 189.332C58.0613 189.093 57.2484 188.68 56.5428 188.118C55.8373 187.555 55.2539 186.855 54.8282 186.06C54.2295 184.996 54.032 183.752 54.2712 182.555C54.5104 181.358 55.1706 180.286 56.1325 179.532C57.3602 178.548 58.7634 177.804 60.268 177.341C63.2373 176.285 66.3581 175.716 69.5094 175.657C70.2252 175.657 70.6706 175.53 70.7819 174.72C71.3704 170.94 71.8794 167.16 72.1657 163.364C72.1803 163.121 72.1803 162.877 72.1657 162.634C71.4921 162.6 70.8217 162.748 70.2252 163.063C65.8015 164.546 61.2228 165.521 56.5778 165.969C52.255 166.211 47.9187 165.934 43.6621 165.143C37.3889 164.149 31.2991 162.227 25.5928 159.441C20.724 156.964 16.3132 153.677 12.5499 149.721C8.60043 145.637 4.98359 141.245 1.73376 136.587C1.08046 135.731 0.545461 134.79 0.143152 133.792C-0.0414734 133.436 -0.127896 133.038 -0.10723 132.638C-0.0865643 132.238 0.0404449 131.85 0.260737 131.515C0.481029 131.181 0.786653 130.91 1.14618 130.733C1.50571 130.555 1.90617 130.476 2.30637 130.504C10.4348 129.866 18.6028 129.919 26.7222 130.663C32.6603 131.187 38.4901 132.573 44.0279 134.776C52.7205 138.21 60.0838 144.332 65.0398 152.247C65.183 152.485 65.358 152.707 65.4852 152.946C65.5537 153.129 65.6584 153.297 65.7931 153.439C65.9277 153.581 66.0896 153.695 66.2691 153.773C66.4486 153.852 66.6421 153.893 66.838 153.896C67.034 153.898 67.2284 153.861 67.4098 153.787C68.7214 153.477 70.0489 153.239 71.3864 153.073C72.3089 152.946 72.5952 152.533 72.5634 151.627C72.4769 148.303 71.6281 145.043 70.0821 142.098C68.3057 139.04 66.2276 136.167 63.8787 133.522C59.0226 127.63 54.6098 121.387 50.6767 114.844C46.2492 107.519 43.4501 99.3296 42.4692 90.8302C41.714 85.2162 41.2839 79.5633 41.1808 73.8998C41.1412 73.3661 41.1895 72.8296 41.3239 72.3116C41.3961 72.0383 41.5314 71.7857 41.7189 71.5739C41.9064 71.3622 42.141 71.1973 42.4038 71.0923C42.6666 70.9873 42.9504 70.9452 43.2324 70.9694C43.5145 70.9936 43.7869 71.0834 44.0279 71.2316C44.3185 71.4042 44.5904 71.6064 44.8392 71.8351C52.8452 78.4468 59.0677 86.9532 62.9402 96.5796C65.1484 102.307 66.6856 108.271 67.5212 114.352C67.5647 115.082 67.7427 115.798 68.0461 116.464C68.5551 114.256 69.0005 112.192 69.5094 110.111C72.0893 99.0823 77.1782 88.7948 84.3816 80.0462C87.8932 75.8631 92.1343 72.3494 96.8997 69.6751C97.1882 69.5059 97.4855 69.3522 97.7904 69.2145C98.0892 69.0218 98.4301 68.9038 98.7843 68.8707C99.1385 68.8376 99.4955 68.8903 99.8249 69.0244C100.154 69.1584 100.446 69.3699 100.677 69.6408C100.907 69.9117 101.068 70.234 101.147 70.5804C101.605 72.0871 101.914 73.6351 102.069 75.2021C103.599 85.0896 102.126 95.2081 97.8381 104.251C95.7053 108.777 92.823 112.911 89.3125 116.48C86.8948 118.989 84.3021 121.324 81.7412 123.675C79.3098 125.764 77.0591 128.053 75.0129 130.52C74.5994 131.044 74.2494 131.616 73.8518 132.108C73.6528 132.325 73.5425 132.608 73.5425 132.902C73.5425 133.196 73.6528 133.48 73.8518 133.696C75.4424 136.158 76.9217 138.667 78.4646 141.145C78.5759 141.32 78.6554 141.542 78.9894 141.606C79.3235 141.669 79.5939 140.907 79.8484 140.51C84.4258 133.184 90.2376 126.704 97.0269 121.356C103.975 115.879 112.171 112.201 120.886 110.651C126.342 109.571 131.877 109.063 137.396 108.317C141.198 107.856 144.952 107.205 148.706 106.506C149.087 106.413 149.475 106.349 149.867 106.315C150.2 106.289 150.534 106.357 150.83 106.513C151.126 106.668 151.372 106.905 151.538 107.194C151.705 107.484 151.786 107.815 151.772 108.148C151.757 108.482 151.648 108.805 151.457 109.079C151.13 109.601 150.774 110.104 150.392 110.588C148.876 112.678 147.479 114.852 146.208 117.099C138.51 130.479 126.23 140.632 111.629 145.687C101.883 149.078 91.9388 151.873 81.8525 154.057C80.2619 154.454 78.5759 154.788 76.9376 155.185C76.7055 155.257 76.491 155.377 76.3073 155.536C76.1237 155.695 75.975 155.89 75.8704 156.11C75.7659 156.329 75.7078 156.567 75.6999 156.81C75.6919 157.052 75.7342 157.294 75.8241 157.52C76.015 157.917 76.3968 157.79 76.699 157.71C77.7488 157.472 78.7668 157.17 79.8802 156.948C81.9792 156.531 84.1055 156.266 86.2426 156.154C86.8013 156.079 87.3694 156.178 87.8701 156.437C88.3708 156.695 88.7799 157.101 89.0421 157.599C91.784 162.161 95.6078 165.979 100.176 168.717C105.986 172.265 112.499 174.509 119.264 175.292C126.68 176.285 134.195 176.285 141.612 175.292C141.808 175.301 142.005 175.269 142.188 175.198C142.372 175.126 142.538 175.018 142.677 174.879ZM146.415 110.381C145.988 110.23 145.522 110.23 145.095 110.381C142.121 110.937 139.098 111.271 136.092 111.652C130.811 112.351 125.483 112.859 120.186 114.002C112.605 115.5 105.473 118.729 99.3492 123.436C92.5389 128.706 86.7404 135.163 82.2343 142.495C81.773 143.273 81.3276 144.083 80.8186 144.798C79.5621 146.624 78.051 146.609 76.858 144.798C76.5876 144.369 76.349 143.924 76.0945 143.496C74.3131 140.637 72.6111 137.73 70.7501 134.919C70.2944 134.355 70.0458 133.651 70.0458 132.926C70.0458 132.201 70.2944 131.497 70.7501 130.933C72.5887 128.176 74.7633 125.658 77.2239 123.436C80.087 120.736 83.0455 118.148 85.829 115.368C96.5179 104.743 100.606 91.8308 99.0152 76.9968C98.9513 75.5478 98.7055 74.1124 98.2835 72.7245C97.696 72.796 97.1426 73.0391 96.6929 73.4233C93.1187 75.6053 89.9002 78.3209 87.1493 81.4756C80.2338 89.6546 75.2925 99.3104 72.7066 109.698C71.3227 114.796 70.5592 120.006 69.6844 125.215C69.6854 125.842 69.5833 126.464 69.3822 127.058C69.2528 127.366 69.0294 127.625 68.7438 127.799C68.4583 127.973 68.1251 128.052 67.7916 128.026C67.4791 128.012 67.179 127.9 66.9336 127.706C66.6882 127.512 66.5099 127.247 66.4237 126.946C66.3147 126.625 66.2296 126.296 66.1692 125.962C65.8351 123.976 65.4693 121.991 65.1671 119.99C64.5703 115.037 63.6672 110.125 62.4631 105.283C59.7589 94.3918 53.9262 84.5271 45.6822 76.9015C45.3959 76.6315 45.1891 76.1074 44.5528 76.3139C44.5528 77.0921 44.5528 77.9021 44.5528 78.6486C44.825 84.0324 45.4252 89.3946 46.3502 94.7055C47.1951 99.8065 48.8659 104.736 51.297 109.301C53.8306 114.053 56.6677 118.636 59.7908 123.023C62.9721 127.47 66.535 131.584 69.8435 135.904C72.7232 139.381 74.6473 143.546 75.4265 147.99C75.5696 148.927 75.6333 149.896 75.7446 150.833C75.9037 152.151 75.9037 152.167 77.1602 151.897C78.4168 151.627 79.6734 151.326 80.93 151.024C91.0368 148.846 100.997 146.04 110.754 142.622C121.852 138.727 131.596 131.731 138.828 122.468C141.691 118.767 143.902 114.654 146.383 110.715C146.447 110.635 146.336 110.508 146.415 110.381ZM3.86517 133.585C3.94552 134.179 4.20649 134.733 4.61275 135.173C7.59231 139.389 10.8778 143.381 14.4427 147.117C19.4458 152.463 25.6578 156.537 32.5597 158.997C37.3805 160.701 42.3724 161.878 47.4477 162.507C52.069 163.161 56.7672 163.043 61.3496 162.157C64.6385 161.43 67.8877 160.534 71.0841 159.473C72.5316 158.997 72.5316 158.997 72.5634 157.504C72.5634 157.091 72.7384 156.614 72.293 156.249L68.396 156.9C65.0717 157.52 64.5945 157.313 62.7335 154.423C62.5267 154.089 62.3199 153.756 62.0972 153.422C60.2803 150.647 58.1451 148.094 55.7348 145.814C50.2425 140.866 43.6084 137.352 36.4249 135.586C30.1395 134.087 23.7042 133.304 17.2422 133.252C12.8203 133.109 8.39839 133.49 3.86517 133.585ZM63.3856 186.743C66.0419 187.076 67.6802 185.583 68.7937 183.265C69.2431 182.297 69.5742 181.278 69.7798 180.231C70.0502 179.008 69.9389 178.849 68.6664 178.913C65.5767 179.049 62.5419 179.777 59.7272 181.057C59.2714 181.27 58.8396 181.531 58.4388 181.835C58.1476 182.013 57.9036 182.258 57.7278 182.55C57.5521 182.842 57.4496 183.172 57.4293 183.512C57.409 183.853 57.4714 184.193 57.6112 184.503C57.751 184.814 57.964 185.087 58.2321 185.298C58.8017 185.839 59.5037 186.223 60.268 186.409C61.2827 186.686 62.3352 186.799 63.3856 186.743Z" fill="#DBE125"></path></g><defs><clipPath id="clip0_4_13"><rect width="428" height="384" fill="white"></rect></clipPath></defs></svg>