<svg xmlns="http://www.w3.org/2000/svg" width="162" height="22" viewBox="0 0 162 22" fill="none"><path fill-rule="evenodd" clip-rule="evenodd" d="M21.4631 7.59566C20.6755 7.2522 19.8337 7.08046 18.9376 7.08046C18.0448 7.08046 17.1989 7.25397 16.4 7.601C15.6089 7.94013 14.904 8.45278 14.2853 9.13894C13.6743 9.81721 13.1927 10.6611 12.8402 11.6706C12.4956 12.6802 12.3233 13.8514 12.3233 15.1842C12.3233 16.6512 12.4956 17.9013 12.8402 18.9345C13.1927 19.9598 13.6743 20.7918 14.2853 21.4307C14.3029 21.4487 14.3206 21.4665 14.3384 21.4843C13.2855 21.8192 12.1639 22 11 22C10.969 22 10.938 21.9999 10.907 21.9996V7.36439H8.89807L4.04598 10.038V14.3443L6.36041 13.2086V20.9766C2.60384 19.2266 0 15.4174 0 11C0 4.92487 4.92487 0 11 0C15.8869 0 20.0296 3.18681 21.4631 7.59566ZM18.3525 19.1819C18.1293 19.1118 17.9327 18.9978 17.7628 18.8398C17.4573 18.548 17.2302 18.1024 17.0814 17.503C16.9404 16.8957 16.8699 16.1228 16.8699 15.1842C16.8699 14.3482 16.9404 13.6266 17.0814 13.0193C17.2302 12.4041 17.4573 11.927 17.7628 11.5878C18.0682 11.2487 18.4599 11.0791 18.9376 11.0791C19.4232 11.0791 19.8148 11.2487 20.1125 11.5878C20.4179 11.927 20.6411 12.4041 20.7821 13.0193C20.9231 13.6266 20.9936 14.3482 20.9936 15.1842C20.9936 15.3317 20.9918 15.4751 20.9883 15.6144C20.3575 16.9775 19.4559 18.1897 18.3525 19.1819Z" fill="black"></path><path d="M34.6631 3.812H30.6911V1.16H41.6231V3.812H37.6631V17H34.6631V3.812ZM46.5749 17.288C45.5269 17.288 44.5909 17.064 43.7669 16.616C42.9509 16.168 42.3109 15.556 41.8469 14.78C41.3829 13.996 41.1509 13.104 41.1509 12.104C41.1509 11.104 41.3829 10.212 41.8469 9.428C42.3109 8.636 42.9509 8.012 43.7669 7.556C44.5909 7.092 45.5269 6.86 46.5749 6.86C47.6309 6.86 48.5629 7.092 49.3709 7.556C50.1789 8.012 50.8109 8.636 51.2669 9.428C51.7229 10.212 51.9509 11.104 51.9509 12.104C51.9509 13.104 51.7229 13.996 51.2669 14.78C50.8109 15.556 50.1789 16.168 49.3709 16.616C48.5629 17.064 47.6309 17.288 46.5749 17.288ZM46.5749 14.756C47.0789 14.756 47.5149 14.644 47.8829 14.42C48.2589 14.188 48.5469 13.872 48.7469 13.472C48.9549 13.064 49.0589 12.604 49.0589 12.092C49.0589 11.58 48.9549 11.12 48.7469 10.712C48.5469 10.304 48.2589 9.984 47.8829 9.752C47.5149 9.512 47.0789 9.392 46.5749 9.392C46.0709 9.392 45.6309 9.512 45.2549 9.752C44.8869 9.984 44.5989 10.304 44.3909 10.712C44.1829 11.12 44.0789 11.58 44.0789 12.092C44.0789 12.604 44.1829 13.064 44.3909 13.472C44.5989 13.872 44.8869 14.188 45.2549 14.42C45.6309 14.644 46.0709 14.756 46.5749 14.756ZM57.0208 21.992H53.9968V7.148H57.0568V8.744C57.1528 8.512 57.3608 8.248 57.6808 7.952C58.0008 7.656 58.4168 7.4 58.9288 7.184C59.4488 6.968 60.0408 6.86 60.7048 6.86C61.6408 6.86 62.4568 7.088 63.1528 7.544C63.8488 8 64.3848 8.624 64.7608 9.416C65.1448 10.2 65.3368 11.088 65.3368 12.08C65.3368 13.072 65.1368 13.964 64.7368 14.756C64.3368 15.54 63.7808 16.16 63.0688 16.616C62.3568 17.064 61.5288 17.288 60.5848 17.288C59.8728 17.288 59.2608 17.16 58.7488 16.904C58.2368 16.648 57.8368 16.36 57.5488 16.04C57.2608 15.72 57.0848 15.468 57.0208 15.284V21.992ZM62.3488 12.08C62.3488 11.528 62.2288 11.044 61.9888 10.628C61.7568 10.204 61.4448 9.876 61.0528 9.644C60.6608 9.404 60.2248 9.284 59.7448 9.284C59.2408 9.284 58.7848 9.404 58.3768 9.644C57.9688 9.884 57.6448 10.216 57.4048 10.64C57.1728 11.056 57.0568 11.536 57.0568 12.08C57.0568 12.624 57.1728 13.108 57.4048 13.532C57.6448 13.948 57.9688 14.276 58.3768 14.516C58.7848 14.748 59.2408 14.864 59.7448 14.864C60.2248 14.864 60.6608 14.748 61.0528 14.516C61.4448 14.284 61.7568 13.96 61.9888 13.544C62.2288 13.12 62.3488 12.632 62.3488 12.08ZM69.2053 4.94L66.6013 6.356V3.488L70.7173 1.16H72.2053V17H69.2053V4.94ZM74.4933 9.092C74.4933 7.7 74.6653 6.492 75.0093 5.468C75.3533 4.436 75.8213 3.58 76.4133 2.9C77.0053 2.22 77.6733 1.712 78.4173 1.376C79.1693 1.04 79.9493 0.871999 80.7573 0.871999C81.5733 0.871999 82.3533 1.04 83.0973 1.376C83.8493 1.712 84.5173 2.22 85.1013 2.9C85.6853 3.58 86.1453 4.436 86.4813 5.468C86.8253 6.492 86.9973 7.7 86.9973 9.092C86.9973 10.548 86.8253 11.796 86.4813 12.836C86.1453 13.868 85.6853 14.712 85.1013 15.368C84.5173 16.024 83.8493 16.508 83.0973 16.82C82.3533 17.132 81.5733 17.288 80.7573 17.288C79.9493 17.288 79.1693 17.132 78.4173 16.82C77.6733 16.508 77.0053 16.024 76.4133 15.368C75.8213 14.712 75.3533 13.868 75.0093 12.836C74.6653 11.796 74.4933 10.548 74.4933 9.092ZM77.5173 9.092C77.5173 10.34 77.6533 11.376 77.9253 12.2C78.2053 13.016 78.5893 13.624 79.0773 14.024C79.5653 14.424 80.1253 14.624 80.7573 14.624C81.3893 14.624 81.9453 14.424 82.4253 14.024C82.9133 13.624 83.2933 13.012 83.5653 12.188C83.8453 11.364 83.9853 10.332 83.9853 9.092C83.9853 7.892 83.8453 6.88 83.5653 6.056C83.2933 5.232 82.9133 4.608 82.4253 4.184C81.9453 3.752 81.3893 3.536 80.7573 3.536C80.1253 3.536 79.5653 3.752 79.0773 4.184C78.5893 4.608 78.2053 5.232 77.9253 6.056C77.6533 6.88 77.5173 7.892 77.5173 9.092ZM89.1901 1.16H94.4581C95.4581 1.16 96.3621 1.332 97.1701 1.676C97.9861 2.02 98.6341 2.548 99.1141 3.26C99.5941 3.964 99.8341 4.864 99.8341 5.96C99.8341 7.048 99.5941 7.964 99.1141 8.708C98.6341 9.452 97.9861 10.016 97.1701 10.4C96.3621 10.776 95.4581 10.964 94.4581 10.964H92.1781V17H89.1901V1.16ZM92.1781 8.552H93.6301C94.1901 8.552 94.6941 8.472 95.1421 8.312C95.5981 8.144 95.9621 7.876 96.2341 7.508C96.5061 7.14 96.6421 6.648 96.6421 6.032C96.6421 5.408 96.5061 4.92 96.2341 4.568C95.9621 4.208 95.5981 3.952 95.1421 3.8C94.6941 3.64 94.1901 3.56 93.6301 3.56H92.1781V8.552ZM104.924 11.864C104.924 12.744 105.1 13.448 105.452 13.976C105.804 14.496 106.372 14.756 107.156 14.756C107.948 14.756 108.52 14.496 108.872 13.976C109.224 13.448 109.4 12.744 109.4 11.864V7.148H112.4V12.212C112.4 13.228 112.196 14.12 111.788 14.888C111.38 15.648 110.784 16.24 110 16.664C109.224 17.08 108.276 17.288 107.156 17.288C106.044 17.288 105.096 17.08 104.312 16.664C103.536 16.24 102.944 15.648 102.536 14.888C102.128 14.12 101.924 13.228 101.924 12.212V7.148H104.924V11.864ZM121.152 6.86C121.824 6.86 122.48 7 123.12 7.28C123.76 7.552 124.284 7.988 124.692 8.588C125.108 9.188 125.316 9.972 125.316 10.94V17H122.256V11.468C122.256 10.66 122.064 10.06 121.68 9.668C121.304 9.276 120.808 9.08 120.192 9.08C119.792 9.08 119.408 9.192 119.04 9.416C118.68 9.632 118.384 9.936 118.152 10.328C117.928 10.712 117.816 11.152 117.816 11.648V17H114.768V7.148H117.816V8.72C117.904 8.448 118.104 8.168 118.416 7.88C118.728 7.592 119.124 7.352 119.604 7.16C120.084 6.96 120.6 6.86 121.152 6.86ZM126.844 7.148H128.62V3.104H131.644V7.148H133.972V9.68H131.644V13.244C131.644 13.716 131.72 14.084 131.872 14.348C132.024 14.604 132.264 14.732 132.592 14.732C132.84 14.732 133.044 14.684 133.204 14.588C133.364 14.484 133.46 14.412 133.492 14.372L134.572 16.556C134.524 16.604 134.368 16.688 134.104 16.808C133.848 16.928 133.516 17.036 133.108 17.132C132.708 17.236 132.256 17.288 131.752 17.288C130.848 17.288 130.1 17.028 129.508 16.508C128.916 15.98 128.62 15.164 128.62 14.06V9.68H126.844V7.148ZM138.462 17.288C137.926 17.288 137.466 17.096 137.082 16.712C136.698 16.328 136.506 15.868 136.506 15.332C136.506 14.78 136.698 14.312 137.082 13.928C137.466 13.544 137.926 13.352 138.462 13.352C139.014 13.352 139.478 13.544 139.854 13.928C140.238 14.312 140.43 14.78 140.43 15.332C140.43 15.868 140.238 16.328 139.854 16.712C139.478 17.096 139.014 17.288 138.462 17.288ZM149.722 6.86C150.394 6.86 151.05 7 151.69 7.28C152.33 7.552 152.854 7.988 153.262 8.588C153.678 9.188 153.886 9.972 153.886 10.94V17H150.826V11.468C150.826 10.66 150.634 10.06 150.25 9.668C149.874 9.276 149.378 9.08 148.762 9.08C148.362 9.08 147.978 9.192 147.61 9.416C147.25 9.632 146.954 9.936 146.722 10.328C146.498 10.712 146.386 11.152 146.386 11.648V17H143.338V7.148H146.386V8.72C146.474 8.448 146.674 8.168 146.986 7.88C147.298 7.592 147.694 7.352 148.174 7.16C148.654 6.96 149.17 6.86 149.722 6.86ZM159.339 17H156.279V0.487999H159.339V17Z" fill="black"></path></svg>