<svg xmlns="http://www.w3.org/2000/svg" width="639" height="470" viewBox="0 0 639 470" fill="none"><g clip-path="url(#clip0_1_378)"><path d="M255.784 214.382C255.212 214.382 254.647 214.382 254.088 214.382L194.79 210.632C187.713 210.176 181.107 206.922 176.424 201.587C171.741 196.252 169.366 189.272 169.82 182.182L173.562 122.783C174.018 115.697 177.264 109.082 182.586 104.392C187.907 99.7019 194.87 97.3198 201.944 97.7693L261.203 101.538C268.262 102.005 274.85 105.251 279.529 110.566C284.207 115.882 286.596 122.836 286.174 129.91L282.412 189.407C281.957 196.175 278.955 202.517 274.013 207.153C269.07 211.788 262.555 214.372 255.784 214.382ZM254.166 213.112C260.912 213.535 267.55 211.257 272.62 206.778C277.69 202.3 280.777 195.989 281.203 189.231L284.965 129.832C285.366 123.079 283.084 116.442 278.618 111.368C274.152 106.294 267.863 103.195 261.125 102.749L201.827 98.9799C195.082 98.5678 188.448 100.849 183.377 105.325C178.307 109.8 175.212 116.105 174.771 122.861L171.028 182.26C170.612 189.019 172.887 195.667 177.356 200.748C181.825 205.828 188.123 208.926 194.868 209.363L254.166 213.112Z" fill="#B2A294"></path><path d="M235.102 0H233.893V93.6101H235.102V0Z" fill="#B2A294"></path><path d="M237.695 223.891C232.746 223.914 227.887 222.562 223.66 219.986L172.978 188.743C169.963 186.89 167.344 184.46 165.269 181.591C163.194 178.722 161.704 175.471 160.886 172.025C160.067 168.578 159.936 165.004 160.499 161.506C161.062 158.009 162.308 154.657 164.167 151.643L195.356 100.874C199.102 94.7878 205.107 90.4399 212.051 88.7851C218.995 87.1303 226.311 88.3038 232.392 92.048L283.074 123.29C286.087 125.145 288.704 127.577 290.778 130.446C292.851 133.315 294.34 136.565 295.158 140.011C295.977 143.457 296.109 147.03 295.547 150.527C294.985 154.024 293.741 157.376 291.885 160.391L260.696 211.16C258.272 215.078 254.884 218.306 250.856 220.535C246.828 222.765 242.296 223.92 237.695 223.891ZM218.357 89.822C216.349 89.8233 214.347 90.0592 212.393 90.5249C205.852 92.0736 200.193 96.1615 196.662 101.889L165.473 152.658C161.998 158.391 160.929 165.268 162.499 171.788C164.07 178.308 168.152 183.94 173.855 187.455L224.537 218.697C230.26 222.222 237.147 223.326 243.683 221.766C250.219 220.206 255.869 216.11 259.39 210.379L290.579 159.61C294.098 153.876 295.2 146.978 293.643 140.431C292.086 133.884 287.997 128.224 282.275 124.696L231.593 93.4539C227.605 91.0326 223.021 89.7747 218.357 89.822Z" fill="#B2A294"></path><path d="M241.632 219.185C240.496 219.181 239.362 219.09 238.24 218.912C229.552 217.108 220.995 214.72 212.626 211.765C198.669 206.825 190.872 195.128 191.808 180.523L195.59 120.537C195.789 117.021 196.677 113.579 198.205 110.408C199.732 107.236 201.868 104.397 204.491 102.052C207.114 99.7075 210.172 97.9035 213.491 96.7432C216.81 95.5828 220.325 95.0888 223.835 95.2894L245.472 99.7024C261.301 104.447 271.242 118.116 270.248 133.737L266.466 193.742C266.197 197.634 265.132 201.429 263.338 204.892C261.544 208.355 259.059 211.412 256.037 213.874C251.985 217.246 246.9 219.121 241.632 219.185ZM222.139 96.1681C215.589 96.2168 209.303 98.7604 204.556 103.283C199.81 107.805 196.96 113.967 196.584 120.518L192.802 180.523C191.905 194.718 199.43 206.044 212.958 210.828C221.234 213.77 229.701 216.145 238.299 217.935C241.322 218.381 244.405 218.184 247.348 217.356C250.29 216.528 253.025 215.089 255.375 213.132C258.301 210.744 260.704 207.778 262.434 204.418C264.165 201.059 265.186 197.378 265.433 193.605L269.215 133.6C270.17 118.448 260.521 105.189 245.199 100.581L223.737 96.2852C223.211 96.2462 222.665 96.2462 222.159 96.2462L222.139 96.1681Z" fill="#D1BFB2"></path><path d="M221.535 105.99C221.535 105.99 225.979 109.544 235.511 108.841C245.043 108.138 246.057 105.092 246.057 105.092C246.057 105.092 246.057 99.7024 238.455 99.6047C230.852 99.5071 221.827 104.682 221.535 105.99Z" fill="#827064"></path><path d="M221.535 105.99C221.535 105.99 221.32 95.4456 221.32 93.6101C221.32 91.7746 222.938 89.7048 226.603 89.4509C231.191 89.1589 235.793 89.1263 240.385 89.3533C241.808 89.5486 245.96 89.3533 246.233 93.2586C246.505 97.1639 246.135 105.15 246.135 105.15C244.187 104.359 242.152 103.802 240.073 103.491C237.948 103.491 231.866 103.491 230.658 103.608C227.55 104.12 224.496 104.917 221.535 105.99Z" fill="#F2E4DA"></path><path d="M248.884 85.9948H234.673V107.122H248.884V85.9948Z" fill="#B2A294"></path><path d="M240.482 85.9948H230.619V107.122H240.482V85.9948Z" fill="#D1BFB2"></path><path d="M245.823 121.494C244.617 120.588 243.644 119.407 242.986 118.048C242.328 116.69 242.004 115.193 242.041 113.683C241.808 107.064 227.285 114.992 227.285 114.992C226.86 118.189 225.402 121.158 223.133 123.447C219.352 126.263 216.591 130.237 215.269 134.767C213.946 139.298 214.135 144.136 215.806 148.549C217.477 152.962 220.539 156.709 224.528 159.221C228.516 161.734 233.214 162.874 237.909 162.47C242.603 162.066 247.038 160.14 250.541 156.983C254.043 153.826 256.422 149.611 257.317 144.977C258.212 140.343 257.574 135.543 255.5 131.305C253.426 127.067 250.028 123.623 245.823 121.494Z" fill="white"></path><path d="M236.018 132.78H235.784C235.508 132.72 235.249 132.6 235.024 132.429C233.896 131.599 233.051 130.439 232.607 129.109C232.191 127.846 231.949 126.532 231.886 125.204C231.647 121.57 231.929 117.921 232.724 114.367L233.328 114.503C232.543 117.999 232.261 121.589 232.49 125.165C232.544 126.424 232.76 127.671 233.133 128.875C233.535 130.084 234.297 131.14 235.316 131.902C235.478 132.012 235.655 132.098 235.843 132.155C236.013 132.165 236.183 132.14 236.344 132.083C236.504 132.027 236.652 131.938 236.778 131.823C237.2 131.386 237.531 130.869 237.752 130.303C237.973 129.736 238.079 129.132 238.065 128.523C238.221 126.946 238.221 125.356 238.065 123.779C238.116 124.765 237.969 125.751 237.635 126.68C237.3 127.609 236.783 128.461 236.116 129.187L235.921 129.363L235.726 129.187C235.326 128.765 235.02 128.264 234.825 127.716C234.63 127.167 234.552 126.585 234.595 126.005C234.455 123.106 234.54 120.201 234.848 117.315C234.848 116.339 235.219 114.992 236.31 114.523L236.642 114.386V114.738C236.934 115.831 237.207 116.944 237.48 118.057L237.753 113.254H238.357L238.123 120.498C238.685 123.153 238.889 125.872 238.728 128.582C238.725 129.976 238.18 131.314 237.207 132.312C236.875 132.597 236.456 132.762 236.018 132.78ZM236.271 115.206C235.764 115.791 235.487 116.541 235.492 117.315C235.183 120.168 235.098 123.041 235.238 125.907C235.193 126.816 235.446 127.714 235.96 128.465C237.064 126.889 237.582 124.975 237.422 123.056V120.479C237.168 118.838 236.72 117.159 236.271 115.343V115.206Z" fill="#D8D8D8"></path><path d="M233.133 155.802H232.743C231.947 155.809 231.158 155.654 230.424 155.345C229.69 155.036 229.026 154.58 228.474 154.006C227.936 153.436 227.635 152.681 227.635 151.897C227.635 151.112 227.936 150.357 228.474 149.788L228.591 149.671C228.387 149.365 228.204 149.046 228.045 148.714C227.712 148.12 227.557 147.442 227.597 146.761C227.792 145.297 229.235 144.379 230.424 143.852H230.541C229.891 143.48 229.361 142.929 229.016 142.264C228.67 141.6 228.523 140.849 228.591 140.103C228.712 139.64 228.925 139.206 229.216 138.827C229.507 138.448 229.871 138.132 230.287 137.896C229.618 137.241 229.18 136.386 229.04 135.459C228.899 134.533 229.063 133.585 229.507 132.761C229.752 132.407 230.048 132.091 230.385 131.823C229.912 131.375 229.615 130.773 229.546 130.125C229.541 129.692 229.656 129.266 229.878 128.895C230.246 128.318 230.729 127.823 231.295 127.44C231.862 127.057 232.5 126.795 233.172 126.668C234.508 126.377 235.891 126.377 237.227 126.668L237.09 127.215C235.844 126.944 234.555 126.944 233.309 127.215C232.718 127.319 232.155 127.547 231.658 127.884C231.161 128.22 230.741 128.658 230.424 129.168C230.249 129.449 230.155 129.774 230.151 130.105C230.217 130.629 230.465 131.113 230.852 131.472C231.351 131.164 231.88 130.909 232.431 130.71C234.385 129.955 236.494 129.694 238.572 129.949C239.273 129.949 240.969 130.398 241.262 131.687C241.309 132.017 241.271 132.353 241.151 132.664C241.032 132.975 240.835 133.25 240.579 133.464C240.071 133.881 239.469 134.169 238.825 134.303C237.425 134.652 235.962 134.656 234.561 134.316C233.159 133.976 231.86 133.302 230.775 132.351C230.488 132.578 230.239 132.848 230.034 133.151C229.648 133.886 229.513 134.727 229.65 135.545C229.788 136.363 230.189 137.114 230.794 137.681C231.213 137.445 231.649 137.243 232.1 137.076C234.357 136.22 236.744 135.757 239.156 135.709C239.916 135.651 240.679 135.751 241.398 136.002C241.759 136.086 242.088 136.271 242.348 136.535C242.607 136.799 242.787 137.132 242.864 137.495C242.942 137.857 242.915 138.234 242.787 138.582C242.658 138.93 242.434 139.234 242.139 139.458C241.238 140.171 240.129 140.568 238.981 140.591C237.823 140.679 236.658 140.58 235.531 140.298C233.769 140.007 232.111 139.267 230.716 138.15C230.343 138.352 230.017 138.63 229.758 138.966C229.5 139.303 229.315 139.69 229.215 140.103C229.181 140.794 229.346 141.481 229.692 142.08C230.038 142.679 230.549 143.166 231.164 143.481C233.427 142.631 235.865 142.356 238.26 142.68C238.673 142.693 239.074 142.829 239.41 143.071C239.571 143.197 239.698 143.361 239.78 143.548C239.861 143.736 239.895 143.941 239.878 144.145C239.846 144.43 239.747 144.703 239.587 144.941C239.428 145.179 239.213 145.375 238.962 145.512C238.113 145.9 237.158 145.99 236.252 145.765C234.47 145.542 232.748 144.971 231.184 144.086L230.755 144.262C229.722 144.711 228.435 145.531 228.279 146.722C228.23 147.334 228.366 147.947 228.669 148.48C228.825 148.772 228.981 149.065 229.157 149.339C229.525 149.142 229.91 148.979 230.307 148.851C233.017 148.161 235.824 147.93 238.611 148.167C238.994 148.141 239.372 148.267 239.663 148.519C239.844 148.737 239.935 149.017 239.917 149.3C239.975 149.91 239.975 150.525 239.917 151.135C239.91 151.472 239.816 151.802 239.644 152.092C239.54 152.246 239.416 152.384 239.273 152.502C239.322 152.688 239.322 152.883 239.273 153.068C239.059 153.635 238.642 154.101 238.104 154.377C236.62 155.325 234.893 155.82 233.133 155.802ZM228.962 150.159C228.529 150.634 228.289 151.254 228.289 151.897C228.289 152.54 228.529 153.16 228.962 153.635C229.469 154.152 230.076 154.559 230.747 154.831C231.418 155.103 232.137 155.234 232.86 155.216C234.593 155.295 236.308 154.838 237.772 153.908C238.176 153.683 238.497 153.334 238.689 152.912H238.572C237.604 153.326 236.563 153.539 235.511 153.539C234.459 153.539 233.418 153.326 232.451 152.912C231.065 152.32 229.861 151.37 228.962 150.159ZM229.449 149.807C230.272 150.896 231.359 151.756 232.607 152.307C233.494 152.688 234.449 152.885 235.414 152.885C236.379 152.885 237.334 152.688 238.221 152.307L238.435 152.209C238.401 152.154 238.356 152.106 238.302 152.069C238.248 152.032 238.187 152.006 238.123 151.994V151.448C238.262 151.466 238.395 151.512 238.515 151.582C238.636 151.652 238.741 151.746 238.825 151.858V151.741C238.948 151.512 239.015 151.258 239.02 150.999C239.078 150.414 239.078 149.825 239.02 149.241C239.035 149.082 238.993 148.923 238.903 148.792C238.903 148.675 238.533 148.655 238.299 148.655C235.591 148.419 232.862 148.644 230.229 149.319C229.955 149.459 229.695 149.623 229.449 149.807ZM231.847 143.813C233.273 144.54 234.818 145.003 236.408 145.18C237.174 145.362 237.978 145.301 238.708 145.004C238.876 144.906 239.017 144.771 239.122 144.608C239.228 144.445 239.293 144.259 239.312 144.067C239.333 143.954 239.321 143.838 239.28 143.731C239.239 143.624 239.169 143.531 239.079 143.461C238.828 143.299 238.539 143.204 238.24 143.188C236.089 142.914 233.904 143.128 231.847 143.813ZM231.301 137.838C232.602 138.829 234.118 139.498 235.726 139.79C236.785 140.044 237.875 140.136 238.962 140.064C240.007 139.976 240.995 139.544 241.769 138.833C241.955 138.671 242.104 138.47 242.205 138.244C242.306 138.018 242.357 137.773 242.353 137.525C242.296 137.239 242.162 136.973 241.967 136.757C241.771 136.54 241.521 136.381 241.242 136.295C240.616 136.08 239.953 135.993 239.293 136.041C236.952 136.078 234.636 136.528 232.451 137.369C232.055 137.492 231.67 137.649 231.301 137.838ZM231.301 131.745C232.286 132.647 233.474 133.295 234.764 133.636C236.055 133.976 237.408 133.997 238.708 133.698C239.252 133.589 239.761 133.347 240.19 132.995C240.377 132.849 240.524 132.658 240.616 132.439C240.708 132.22 240.742 131.981 240.716 131.745C240.482 130.769 238.981 130.515 238.513 130.457C236.536 130.206 234.527 130.447 232.665 131.16C232.206 131.313 231.763 131.509 231.34 131.745H231.301Z" fill="#D8D8D8"></path><path d="M246.993 218.58C241.923 218.52 237.029 216.713 233.133 213.464C228.223 209.336 224.974 203.563 223.991 197.218C223.036 191.614 220.404 168.494 218.494 145.023C216.817 124.657 215.317 99.5852 217.539 95.6799C218.786 93.4344 220.17 92.3409 221.671 92.419C224.42 92.5557 226.252 96.7734 226.33 96.9687L225.219 97.4373C224.771 96.4024 223.27 93.7077 221.593 93.532C220.346 93.532 219.293 94.9379 218.591 96.1876C214.693 103.12 223.036 184.545 225.161 196.925C226.973 207.508 235.316 217.916 247.85 217.33C248.146 217.309 248.434 217.221 248.69 217.072C248.947 216.923 249.166 216.718 249.332 216.471C258.513 205.282 243.971 107.513 243.835 106.537L245.024 106.361C245.628 110.403 259.78 205.653 250.268 217.232C249.994 217.612 249.642 217.928 249.234 218.157C248.827 218.386 248.375 218.524 247.909 218.56L246.993 218.58Z" fill="#B2A294"></path><path d="M243.016 114.757C240.225 115.401 237.359 115.664 234.498 115.538C231.58 115.561 228.665 115.339 225.784 114.874V106.302C228.479 105.325 231.345 104.913 234.205 105.092C237.185 105.066 240.153 105.473 243.016 106.302V114.757Z" fill="#A09084"></path><path d="M231.574 413.318L221.184 476.876C221.184 476.876 218.962 478.731 223.036 479.473C225.756 479.886 228.531 479.76 231.203 479.102L250.131 412.205C250.131 412.205 240.482 406.991 231.574 413.318Z" fill="#614A36"></path><path d="M245.297 406.991L228.981 484.316L241.964 480.957L263.854 409.979L245.297 406.991Z" fill="#3A291C"></path><path d="M527.829 414.685L538.219 478.243C538.219 478.243 540.441 480.196 536.367 480.84C533.646 481.255 530.871 481.128 528.199 480.469L509.271 413.572C509.271 413.572 518.921 408.358 527.829 414.685Z" fill="#614A36"></path><path d="M514.086 408.358L530.422 485.683L517.439 482.324L495.548 411.345L514.086 408.358Z" fill="#3A291C"></path><path d="M419.701 487.089C419.701 487.089 420.071 491.931 423.054 492.673C426.036 493.415 432.332 491.189 432.332 491.189L434.184 419.078C434.184 419.078 420.539 417.125 417.108 421.675L419.701 487.089Z" fill="#614A36"></path><path d="M428.98 411.638L431.202 499L437.518 493.786L439.37 412.38L428.98 411.638Z" fill="#3A291C"></path><path d="M336.446 460.923C336.446 460.923 336.973 465.746 339.955 466.391C342.937 467.035 349.195 464.614 349.195 464.614L348.668 392.483C348.668 392.483 334.887 391.057 331.69 395.627L336.446 460.923Z" fill="#614A36"></path><path d="M343.23 385.219L348.24 472.444L354.38 467.055L353.639 385.629L343.23 385.219Z" fill="#3A291C"></path><path d="M334.984 280.459C334.984 280.459 268.708 279.717 248.396 280.459C228.084 281.201 212.022 280.947 200.658 287.157C189.293 293.366 185.317 312.424 188.767 350.833C192.217 389.241 191.983 384.789 192.977 394.201C193.972 403.613 194.459 415.27 205.356 419.234C216.252 423.198 231.067 421.968 239.741 422.456C248.416 422.944 310.248 427.416 320.637 427.904C331.027 428.392 443.833 437.472 443.833 437.472L450.5 287.391L334.984 280.459Z" fill="#CCBCAC"></path><path d="M334.497 282.939C334.497 282.939 274.887 282.685 255.843 284.169C236.798 285.653 229.371 284.423 222.938 289.129C216.506 293.835 207.344 302.27 212.549 332.244C217.753 362.217 214.303 367.762 223.172 374.87C255.57 383.794 420.266 388.578 420.266 388.578L360.696 311.37L334.497 282.939Z" fill="#B2A294"></path><path d="M346.602 210.886C343.327 212.839 342.704 230.218 339.682 244.589C336.661 258.961 333.834 287.704 329.78 295.631C325.725 303.559 322.353 332.302 325.335 335.778C328.318 339.254 509.388 354.621 509.388 354.621L528.687 288.699C528.687 288.699 526.211 285.478 526.445 284.482C527.157 281.956 527.736 279.394 528.18 276.808C528.687 273.586 528.433 271.106 529.661 268.88C530.889 266.654 529.661 264.155 530.655 261.187C531.65 258.219 530.909 256.227 532.605 253.513C534.301 250.799 534.086 246.327 534.086 243.339C534.086 240.352 533.579 238.633 535.08 236.661C536.16 235.425 536.906 233.933 537.247 232.327C537.588 230.72 537.513 229.053 537.03 227.484C535.802 223.032 526.893 212.37 524.671 211.374C522.449 210.379 500.422 214.596 491.533 213.854C482.644 213.112 443.658 211.57 437.147 212.839C430.637 214.108 398.804 214.089 388.668 213.6C378.532 213.112 348.59 209.578 346.602 210.886Z" fill="#EADBCE"></path><path d="M506.659 303.501C506.659 303.501 515.314 271.536 515.568 261.128C515.807 252.73 517.481 244.434 520.519 236.603C522.741 230.745 527.692 218.502 524.418 208.602C521.143 198.702 555.84 223.715 555.84 223.715L550.148 326.561L506.659 303.501Z" fill="#D6C5B6"></path><path d="M472.761 436.828C487.595 435.949 539.934 433.86 546.991 433.118C554.047 432.376 564.047 426.049 568.141 389.241C572.234 352.434 576.678 319.747 577.419 311.565C578.16 303.383 580.753 292.605 573.326 288.895C565.899 285.185 501.708 287.391 501.708 287.391L454.223 291.863L440.578 310.081V426.791L443.931 437.199C443.931 437.199 441.221 438.683 472.761 436.828Z" fill="#B2A294"></path><path d="M223.036 334.606C223.406 339.449 221.184 344.643 224.147 349.857C227.11 355.07 221.554 356.535 221.184 363.232C220.814 369.93 219.235 372.898 227.032 375.866C234.829 378.834 283.074 379.576 295.257 381.079C307.441 382.583 403.99 386.273 410.266 386.273C416.543 386.273 418.064 389.983 425.49 384.418C432.917 378.853 428.824 336.832 428.824 336.832C428.824 336.832 388.746 329.022 382.04 332.009C375.335 334.997 362.372 333.493 356.427 333.122C350.481 332.751 334.166 333.864 322.294 334.235C310.423 334.606 303.347 328.202 285.55 329.412C274.439 330.154 236.934 329.783 232.12 330.896C228.944 331.735 225.891 332.982 223.036 334.606Z" fill="#EADBCE"></path><path d="M216.798 335.036C238.619 331.597 260.877 332.079 282.528 336.461C294.907 338.961 322.314 342.729 332.743 342.729C345.588 342.729 381.339 341.909 388.025 343.901C394.711 345.893 409.76 347.377 410.988 349.349C412.216 351.321 440.364 332.497 440.364 332.497L417.849 317.638L219.702 324.824L216.798 335.036Z" fill="#D6C5B6"></path><path d="M409.818 349.349C411.745 363.058 412.28 376.928 411.416 390.745C411.416 390.745 424.769 392.971 429.72 390.745C434.672 388.519 443.366 347.787 441.416 344.155C439.467 340.523 444.886 342.612 442.196 342.339C430.939 341.268 419.628 343.717 409.818 349.349Z" fill="#C1B2A7"></path><path d="M418.317 395.939L443.833 437.394C444.411 437.518 445.012 437.449 445.547 437.199C446.082 436.949 446.521 436.53 446.796 436.007C447.401 434.816 448.278 346.791 451.611 328.944C454.944 311.096 457.927 298.482 465.724 294.753C473.521 291.023 523.229 286.942 543.696 287.684L573.384 288.817C573.384 288.817 569.31 283.232 530.714 284.345C492.118 285.458 454.691 279.522 437.947 293.269C421.202 307.015 416.368 389.242 418.317 395.939Z" fill="#CCBCAC"></path><path d="M426.114 110.52C425.062 126.59 411.553 133.229 395.53 132.175C379.506 131.121 366.972 122.744 368.044 106.79C368.249 102.933 369.216 99.1548 370.891 95.6751C372.565 92.1955 374.914 89.084 377.799 86.5213C380.685 83.9586 384.05 81.9959 387.699 80.7472C391.348 79.4985 395.209 78.9887 399.056 79.2475C402.904 79.5062 406.662 80.5283 410.111 82.2545C413.561 83.9806 416.634 86.3763 419.152 89.3023C421.669 92.2284 423.581 95.6264 424.777 99.2991C425.972 102.972 426.426 106.846 426.114 110.696V110.52Z" fill="white"></path><mask id="mask0_1_378" style="mask-type:alpha" maskUnits="userSpaceOnUse" x="367" y="79" width="60" height="54"><path d="M426.114 110.52C425.062 126.59 411.553 133.229 395.53 132.175C379.506 131.121 366.972 122.744 368.044 106.79C368.249 102.933 369.216 99.1548 370.891 95.6751C372.565 92.1955 374.914 89.084 377.799 86.5213C380.685 83.9586 384.05 81.9959 387.699 80.7472C391.348 79.4985 395.209 78.9887 399.056 79.2475C402.904 79.5062 406.662 80.5283 410.111 82.2545C413.561 83.9806 416.634 86.3763 419.152 89.3023C421.669 92.2284 423.581 95.6264 424.777 99.2991C425.972 102.972 426.426 106.846 426.114 110.696V110.52Z" fill="white"></path></mask><g mask="url(#mask0_1_378)"><path d="M426.465 133.522C424.672 140.689 409.038 142.934 391.534 138.541C374.029 134.147 361.3 124.872 363.074 117.647C364.848 110.422 380.5 108.255 398.005 112.648C415.51 117.042 428.258 126.376 426.465 133.522Z" fill="#E2D0C3"></path></g><path d="M419.526 100.23L550.558 180.815C557.479 185.091 563.124 191.155 566.897 198.371C570.67 205.586 572.433 213.687 572 221.821L557.848 485.8" stroke="white" stroke-width="2" stroke-miterlimit="10"></path><path d="M145.921 402.949L162.256 477.13H156.272L130.132 402.949H145.921Z" fill="#3A291C"></path><path d="M145.921 402.949L162.256 477.13H159.8L136.526 402.949H145.921Z" fill="#614A36"></path><path d="M93.641 402.949L77.3058 477.13H83.3096L109.43 402.949H93.641Z" fill="#3A291C"></path><path d="M93.641 402.949L77.3058 477.13H80.5806L103.855 402.949H93.641Z" fill="#614A36"></path><path d="M123.056 405.117L118.69 484.628H113.797L110.522 404.043L123.056 405.117Z" fill="#614A36"></path><path d="M123.329 406.893C166.036 406.893 200.658 403.72 200.658 399.805C200.658 395.891 166.036 392.717 123.329 392.717C80.6213 392.717 46 395.891 46 399.805C46 403.72 80.6213 406.893 123.329 406.893Z" fill="#B2A294"></path><path d="M46.0194 399.473H200.658V394.885H46.0194V399.473Z" fill="#B2A294"></path><path d="M46 394.904C46 398.809 80.6196 401.992 123.329 401.992C166.038 401.992 200.638 398.809 200.638 394.904C200.638 390.999 166.019 387.816 123.329 387.816C80.6391 387.816 46 390.979 46 394.904Z" fill="#EFE3DA"></path><path d="M126.155 392.385L117.091 399.493L92.8223 399.337L77.5787 392.385L89.8593 386.273L114.148 386.43L126.155 392.385Z" fill="#D8C5B8"></path><path d="M122.939 391.897L112.432 396.72L91.6527 396.583L81.3799 391.897L91.8866 386.644L112.666 386.781L122.939 391.897Z" fill="white"></path><path d="M122.939 361.006H81.3799V391.839H122.939V361.006Z" fill="white"></path><path d="M122.939 361.006L112.432 366.103L91.6527 365.966L81.3799 361.006L91.8866 359.054L112.666 359.19L122.939 361.006Z" fill="#8C7B6D"></path><path d="M117.15 335.348C113.251 322.168 102.608 322.012 102.023 322.012C101.458 322.012 90.795 322.148 86.8769 335.348C85.0847 340.772 84.8452 346.59 86.1854 352.143C87.5256 357.696 90.392 362.762 94.4597 366.766C96.9636 367.221 99.4987 367.482 102.042 367.548C104.586 367.483 107.122 367.222 109.625 366.766C113.687 362.758 116.545 357.689 117.875 352.136C119.205 346.582 118.954 340.766 117.15 335.348Z" fill="white"></path><path d="M101.984 322.012C101.984 322.012 91.3213 321.797 87.4811 335.348C85.7492 340.754 85.5088 346.527 86.7854 352.058C88.0619 357.589 90.8079 362.671 94.7325 366.766C97.1248 367.221 99.5498 367.482 101.984 367.547V322.012Z" fill="#EADBCE"></path><path d="M101.984 322.012C101.984 322.012 112.647 321.797 116.506 335.348C118.238 340.754 118.479 346.527 117.202 352.058C115.926 357.589 113.18 362.671 109.255 366.766C106.856 367.222 104.425 367.483 101.984 367.547V322.012Z" fill="#EADBCE"></path><path d="M101.984 322.012C101.984 322.012 111.068 321.797 114.343 335.348C117.617 348.9 113.836 359.776 108.163 366.766C106.133 367.221 104.064 367.483 101.984 367.547V322.012Z" fill="#CCBCAC"></path><path d="M101.984 322.012C101.984 322.012 93.68 321.797 90.6781 335.348C87.6762 348.9 91.1459 359.776 96.3311 366.766C98.1839 367.219 100.078 367.481 101.984 367.547V322.012Z" fill="white"></path><path d="M101.984 322.012C101.984 322.012 110.308 321.797 113.309 335.348C116.311 348.9 112.842 359.776 107.637 366.766C105.784 367.221 103.89 367.482 101.984 367.547V322.012Z" fill="white"></path><path d="M101.984 322.012C101.984 322.012 94.1868 321.797 91.4577 335.348C88.7287 348.9 91.8866 359.776 96.7209 366.766C98.4416 367.218 100.206 367.48 101.984 367.547V322.012Z" fill="#EADBCE"></path><path d="M101.984 322.012C101.984 322.012 109.781 321.797 112.53 335.348C115.278 348.9 112.101 359.776 107.267 366.766C105.539 367.219 103.768 367.481 101.984 367.547V322.012Z" fill="#D6C5B6"></path><path d="M101.984 322.012C101.984 322.012 107.715 321.797 109.781 335.348C111.847 348.9 109.469 359.776 105.883 366.766C104.628 367.214 103.314 367.477 101.984 367.547V322.012Z" fill="#CCBCAC"></path><path d="M101.984 322.012C101.984 322.012 95.4149 321.797 93.0367 335.348C90.6586 348.9 93.4071 359.776 97.5201 366.766C98.9688 367.216 100.469 367.479 101.984 367.547V322.012Z" fill="#D6C5B6"></path><path d="M101.984 322.012C101.984 322.012 97.5396 321.797 95.9411 335.348C94.3427 348.9 96.1945 359.776 98.9625 366.766C99.9151 367.205 100.938 367.47 101.984 367.547V322.012Z" fill="white"></path><path d="M101.984 322.012C101.984 322.012 106.428 321.797 108.046 335.348C109.664 348.9 107.793 359.776 105.025 366.766C104.066 367.207 103.036 367.472 101.984 367.547V322.012Z" fill="white"></path><path d="M101.984 322.012C101.984 322.012 98.2023 321.797 96.8378 335.348C95.5232 345.887 96.3992 356.584 99.4109 366.766C100.206 367.2 101.082 367.466 101.984 367.547V322.012Z" fill="#B5A291"></path><path d="M101.984 322.012C101.984 322.012 105.766 321.797 107.13 335.348C108.429 345.892 107.526 356.591 104.479 366.766C103.685 367.204 102.809 367.47 101.906 367.547L101.984 322.012Z" fill="#D6C5B6"></path><path d="M91.6527 396.583L112.432 396.72V366.103L91.6527 365.966V396.583Z" fill="#F2E9E2"></path><path d="M135.98 398.146C144.259 398.146 150.97 396.939 150.97 395.451C150.97 393.963 144.259 392.756 135.98 392.756C127.701 392.756 120.99 393.963 120.99 395.451C120.99 396.939 127.701 398.146 135.98 398.146Z" fill="#D8C5B8"></path><path d="M120.853 385.004L136.545 391.956L135.259 372.566L120.853 385.004Z" fill="#D6C5B6"></path><path d="M120.853 385.004L126.097 396.876L136.545 391.956L120.853 385.004Z" fill="#CCBCAC"></path><path d="M136.545 391.956L126.097 396.876L143.972 393.733L136.545 391.956Z" fill="#B5A291"></path><path d="M150.736 379.459L140.483 364.169L135.259 372.566L150.736 379.459Z" fill="#EADBCE"></path><path d="M143.972 393.733L150.736 379.459L136.545 391.956L143.972 393.733Z" fill="#D6C5B6"></path><path d="M135.259 372.566L121.886 366.181L120.853 385.004L135.259 372.566Z" fill="#EADBCE"></path><path d="M140.483 364.169L121.886 366.181L135.259 372.566L140.483 364.169Z" fill="white"></path><path d="M115.629 380.728L126.097 396.876L120.853 385.004L115.629 380.728Z" fill="#B5A291"></path><path d="M121.886 366.181L115.629 380.728L120.853 385.004L121.886 366.181Z" fill="#D6C5B6"></path><path d="M136.545 391.956L150.736 379.459L135.259 372.566L136.545 391.956Z" fill="#CCBCAC"></path><path d="M328.98 252.048C337.539 251.102 346.14 250.588 354.75 250.506C367.908 250.506 402.45 246.015 414.496 250.955C426.543 255.895 416.68 271.262 417.791 287.704C418.902 304.145 419.428 334.333 413.892 338.726C408.356 343.12 375.549 339.273 358.025 337.086C340.501 334.899 335.043 336.539 319.156 335.993C303.269 335.446 311.495 317.325 314.224 303.071C316.953 288.817 313.055 253.142 328.98 252.048Z" fill="white"></path><path opacity="0.36" d="M423.346 250.506C420.773 252.575 413.6 245.858 410.461 263.413C407.323 280.967 406.855 292.859 407.888 300.103C408.921 307.347 409.838 339.351 415.686 344.526C421.533 349.7 443.541 294.421 443.541 294.421L423.346 250.506Z" fill="#DDCEC3"></path></g><defs><clipPath id="clip0_1_378"><rect width="639" height="470" fill="white"></rect></clipPath></defs></svg>