<svg xmlns="http://www.w3.org/2000/svg" width="649" height="438" viewBox="0 0 649 438" fill="none"><g clip-path="url(#clip0_4_137)"><path d="M614.921 424.735V420.49H594.921C581.805 419.246 563.387 418.515 542.952 418.515C522.517 418.515 504.119 419.305 491.003 420.49H470.904V424.735H471.003C470.943 424.831 470.909 424.939 470.904 425.051C470.904 428.685 503.169 431.627 542.952 431.627C582.735 431.627 615 428.685 615 425.051C615.002 424.941 614.974 424.832 614.921 424.735Z" fill="#B2A294"></path><path d="M615 420.49C615 424.123 582.754 427.066 542.952 427.066C503.15 427.066 470.904 424.123 470.904 420.49C470.904 416.856 503.169 413.894 542.952 413.894C582.735 413.894 615 416.856 615 420.49Z" fill="white"></path><path d="M442.457 32.2283C441.349 48.8757 427.304 55.7677 410.627 54.6618C393.95 53.5559 380.953 44.9064 382.021 28.2392C382.214 24.2294 383.206 20.2981 384.937 16.6747C386.668 13.0513 389.105 9.80834 392.105 7.13511C395.106 4.46188 398.609 2.41187 402.412 1.10469C406.214 -0.202478 410.239 -0.740638 414.252 -0.478385C418.265 -0.216133 422.185 0.841281 425.785 2.63216C429.384 4.42304 432.59 6.91152 435.215 9.9524C437.841 12.9933 439.833 16.5257 441.077 20.3435C442.32 24.1613 442.789 28.188 442.457 32.1888V32.2283Z" fill="white"></path><mask id="mask0_4_137" style="mask-type:alpha" maskUnits="userSpaceOnUse" x="381" y="-1" width="62" height="56"><path d="M442.457 32.2283C441.349 48.8757 427.304 55.7677 410.627 54.6618C393.95 53.5559 380.953 44.9064 382.021 28.2392C382.214 24.2294 383.206 20.2981 384.937 16.6747C386.668 13.0513 389.105 9.80834 392.105 7.13511C395.106 4.46188 398.609 2.41187 402.412 1.10469C406.214 -0.202478 410.239 -0.740638 414.252 -0.478385C418.265 -0.216133 422.185 0.841281 425.785 2.63216C429.384 4.42304 432.59 6.91152 435.215 9.9524C437.841 12.9933 439.833 16.5257 441.077 20.3435C442.32 24.1613 442.789 28.188 442.457 32.1888V32.2283Z" fill="white"></path></mask><g mask="url(#mask0_4_137)"><path d="M442.734 56.0838C440.894 63.4892 424.613 65.8195 406.393 61.2775C388.174 56.7355 374.919 47.0393 376.72 39.5549C378.52 32.0705 394.86 29.8193 413.06 34.3613C431.26 38.9032 444.594 48.6586 442.734 56.0838Z" fill="#A7C5CB"></path></g><path d="M435.533 21.5449C435.533 21.5449 500.815 82.7631 520.598 105.118C534.248 120.462 540.657 130.632 543.031 147.714C553.18 220.346 579.55 421.497 579.55 421.497" stroke="white" stroke-width="2.05" stroke-miterlimit="10"></path><path d="M180.477 451.02C213.025 451.02 239.409 447.368 239.409 442.864C239.409 438.359 213.025 434.708 180.477 434.708C147.93 434.708 121.545 438.359 121.545 442.864C121.545 447.368 147.93 451.02 180.477 451.02Z" fill="#E8EDED"></path><path d="M180.062 435.873C179.511 435.856 178.971 435.723 178.474 435.485C177.978 435.247 177.537 434.908 177.179 434.489C176.822 434.071 176.555 433.583 176.398 433.056C176.24 432.529 176.194 431.976 176.264 431.43C176.086 413.894 174.127 357.692 174.127 357.692C174.127 355.263 177.609 353.249 180.062 353.249C182.515 353.249 186.808 355.223 186.808 357.692C186.808 357.692 184.137 413.894 183.84 431.43C183.801 433.859 182.515 435.873 180.062 435.873Z" fill="#442E26"></path><path d="M157.905 356.349C152.742 352.399 142.851 353.663 140.101 364.603C137.351 375.544 131.06 433.958 130.507 437.512C129.953 441.067 130.507 444.345 133.81 444.898C137.114 445.451 137.608 442.35 139.013 436.683C140.418 431.015 148.588 370.212 151.891 363.379C155.195 356.546 157.905 356.349 157.905 356.349Z" fill="#180D0A"></path><path d="M156.54 355.974C151.377 351.886 141.466 349.2 138.736 360.476C136.006 371.752 129.696 433.819 129.142 437.492C128.588 441.165 129.142 444.562 132.426 445.115C135.709 445.668 136.263 442.587 137.628 436.663C138.993 430.739 147.223 368.118 150.507 361.068C153.791 354.018 156.54 355.974 156.54 355.974Z" fill="#543A2F"></path><path d="M203.029 356.349C208.193 352.399 218.104 353.663 220.834 364.603C223.564 375.544 229.874 433.958 230.428 437.512C230.982 441.067 230.428 444.345 227.144 444.898C223.86 445.451 223.306 442.429 221.941 436.683C220.576 430.936 212.347 370.212 209.063 363.359C205.779 356.507 203.029 356.349 203.029 356.349Z" fill="#180D0A"></path><path d="M204.394 355.974C209.577 351.886 219.469 349.2 222.199 360.476C224.929 371.752 231.239 433.819 231.773 437.492C232.307 441.165 231.773 444.562 228.489 445.115C225.205 445.668 224.652 442.587 223.287 436.663C221.922 430.739 213.692 368.118 210.408 361.068C207.124 354.018 204.394 355.974 204.394 355.974Z" fill="#543A2F"></path><path d="M180.477 357.218C223.819 357.218 258.954 354.008 258.954 350.049C258.954 346.09 223.819 342.881 180.477 342.881C137.135 342.881 102 346.09 102 350.049C102 354.008 137.135 357.218 180.477 357.218Z" fill="#B2A294"></path><path d="M102.02 349.714H258.954V345.073H102.02V349.714Z" fill="#B2A294"></path><path d="M102 345.073C102 349.022 137.134 352.241 180.477 352.241C223.821 352.241 258.935 349.042 258.935 345.073C258.935 341.103 223.801 337.904 180.477 337.904C137.154 337.904 102 341.123 102 345.073Z" fill="#EFE3DA"></path><path d="M162.653 345.409C171.055 345.409 177.866 344.189 177.866 342.683C177.866 341.178 171.055 339.958 162.653 339.958C154.251 339.958 147.44 341.178 147.44 342.683C147.44 344.189 154.251 345.409 162.653 345.409Z" fill="#D8C5B8"></path><path d="M147.302 332.099L163.227 339.129L161.921 319.519L147.302 332.099Z" fill="#ACCACC"></path><path d="M147.302 332.099L152.623 344.125L163.227 339.129L147.302 332.099Z" fill="#9AB0B2"></path><path d="M163.227 339.129L152.623 344.125L170.764 340.945L163.227 339.129Z" fill="#7C9599"></path><path d="M177.648 326.51L167.223 311.028L161.921 319.519L177.648 326.51Z" fill="#C3DEE2"></path><path d="M170.764 340.946L177.648 326.51L163.227 339.129L170.764 340.946Z" fill="#95B1B5"></path><path d="M161.921 319.519L148.35 313.062L147.302 332.099L161.921 319.519Z" fill="#C3DEE2"></path><path d="M167.223 311.028L148.35 313.062L161.921 319.519L167.223 311.028Z" fill="#DCF2F4"></path><path d="M142 327.793L152.623 344.125L147.302 332.098L142 327.793Z" fill="#7C9599"></path><path d="M148.35 313.062L142 327.794L147.302 332.099L148.35 313.062Z" fill="#A7C5CB"></path><path d="M163.227 339.129L177.648 326.51L161.921 319.519L163.227 339.129Z" fill="#A7C5CB"></path><path d="M231.457 345.586C231.457 347.087 199.191 346.297 190.349 345.942C181.506 345.586 174.523 344.066 174.523 342.545C174.523 341.025 181.803 340.136 190.626 340.57C199.449 341.005 231.516 344.105 231.457 345.586Z" fill="#D8C5B8"></path><path d="M191.021 328.603L183.919 343.73H185.067L193.316 329.749L191.021 328.603Z" fill="#442E26"></path><path d="M195.314 328.603L188.192 343.73H189.36L197.609 329.749L195.314 328.603Z" fill="#180D0A"></path><path d="M172.307 272.993C172.307 272.993 187.263 269.241 189.973 274.356C192.683 279.471 190.606 284.585 193.316 288.179C201.43 297.195 207.24 308.035 210.25 319.776C210.25 319.776 230.843 343.138 231.773 345.33C232.703 347.522 221.249 342.762 206.926 332.237C206.926 332.237 189.656 334.685 181.407 321.139C173.158 307.592 177.648 293.492 180.358 287.567C183.069 281.643 173.355 273.428 172.307 272.993Z" fill="#755B57"></path><path d="M169.399 271.433C169.399 271.433 184.928 268.787 188.43 273.527C192.268 278.7 188.43 284.467 191.16 288.081C193.89 291.695 204.513 305.36 206.61 322.639C206.61 322.639 231.635 344.717 232.565 346.969C233.494 349.22 217.668 346.969 203.346 336.107C203.346 336.107 186.729 334.488 178.479 320.625C170.23 306.762 174.721 292.267 177.431 286.343C180.141 280.419 170.428 271.868 169.399 271.433Z" fill="#442E26"></path><path d="M486.77 339.662C462.121 350.997 432.566 359.706 402.259 360.634C365.206 361.779 326.037 350.345 298.124 338.457C298.124 338.457 296.264 338.852 298.876 340.61C309.063 347.502 342.397 365.038 395.177 365.038C449.282 365.038 479.905 346.811 487.917 340.61C489.717 339.227 486.77 339.662 486.77 339.662Z" fill="#180D0A"></path><path d="M410.963 362.431H387.224C387.224 362.431 389.558 335.1 389.558 325.977C389.558 317.367 387.224 291.556 387.224 291.556H410.963C410.963 291.556 408.174 316.814 408.174 325.226C408.174 334.528 410.963 362.431 410.963 362.431Z" fill="#180D0A"></path><path d="M470.607 236.381C473.041 250.047 483.605 277.18 476.542 288.18C463.486 308.48 423.129 308.085 396.641 308.085C373.436 308.085 334.405 311.127 320.834 294.933C310.488 282.591 319.786 253.088 322.634 236.381C329.281 197.3 318.401 160.609 396.641 160.609C477.551 160.609 463.644 197.34 470.607 236.381Z" fill="#805A49"></path><path d="M466.948 234.268C469.262 248.091 479.312 275.738 472.566 286.817C460.143 307.414 421.824 307.019 396.641 307.019C374.603 307.019 337.511 310.1 324.613 293.669C314.721 281.149 323.623 251.212 326.334 234.268C332.644 194.614 322.377 157.39 396.641 157.39C473.555 157.39 460.36 194.674 466.948 234.268Z" fill="#E2D5CF"></path><path d="M465.583 233.024C467.858 246.532 477.69 273.369 471.102 284.25C458.916 304.314 421.349 303.998 396.66 303.998C375.058 303.998 338.678 306.98 326.057 290.984C316.423 278.78 325.067 249.513 327.718 233.083C333.93 194.437 323.762 158.16 396.66 158.16C472.071 158.16 459.114 194.476 465.583 233.024Z" fill="#F4EAE4"></path><path d="M231.931 277.22C238.46 266.872 274.543 303.543 318.836 313.654C363.129 323.765 459.806 322.442 486.869 306.229C513.931 290.016 553.813 264.759 561.587 266.733C569.362 268.708 562.932 285.296 535.87 307.572C508.807 329.847 457.116 357.435 403.011 359.054C348.905 360.674 290.428 334.587 267.105 319.737C243.781 304.886 226.195 286.343 231.931 277.22Z" fill="#180D0A"></path><path d="M231.932 275.185C238.46 264.837 274.543 301.509 318.836 311.64C363.129 321.77 459.806 320.408 486.869 304.215C513.931 288.021 553.813 262.744 561.587 264.719C569.362 266.694 562.932 283.282 535.87 305.557C508.808 327.833 457.096 353.821 402.991 355.519C348.886 357.218 290.409 332.572 267.085 317.722C243.761 302.872 226.195 284.368 231.932 275.185Z" fill="#805A49"></path><path d="M494.129 310.83C499.134 322.304 450.113 354.848 397.195 354.848C344.276 354.848 288.391 323.449 303.544 314.641C316.383 307.177 344.356 315.905 397.195 314.641C450.034 313.378 488.55 298.014 494.129 310.83Z" fill="#E2D5CF"></path><path d="M494.129 310.593C499.134 321.534 450.113 351.55 397.195 351.55C344.276 351.55 288.391 322.62 303.544 314.227C316.383 307.118 344.356 315.431 397.195 314.227C450.034 313.022 488.55 298.389 494.129 310.593Z" fill="#F4EAE4"></path><path d="M301.586 340.491C295.196 335.594 282.99 332.395 279.607 345.902C276.225 359.41 268.45 433.642 267.738 438.026C267.026 442.41 267.738 446.478 271.694 447.149C275.651 447.82 276.422 444.108 278.124 437.018C279.825 429.929 289.993 355.006 293.95 346.574C297.906 338.141 301.586 340.491 301.586 340.491Z" fill="#180D0A"></path><path d="M299.825 337.43C293.435 332.375 281.23 329.077 277.847 342.999C274.464 356.921 266.689 433.484 265.977 438.006C265.265 442.528 265.977 446.715 270.052 447.406C274.128 448.097 274.78 444.266 276.462 436.959C278.143 429.653 288.331 352.399 292.288 343.69C296.244 334.982 299.825 337.43 299.825 337.43Z" fill="#543A2F"></path><path d="M485.286 340.491C491.656 335.594 503.882 332.395 507.265 345.902C510.647 359.41 518.422 433.642 519.134 438.026C519.846 442.41 519.134 446.478 515.079 447.149C511.023 447.82 510.351 444.108 508.649 437.018C506.948 429.929 496.78 355.006 492.823 346.574C488.867 338.141 485.286 340.491 485.286 340.491Z" fill="#180D0A"></path><path d="M486.968 337.43C493.357 332.375 505.563 329.077 508.946 342.999C512.329 356.921 520.103 433.484 520.816 438.006C521.528 442.528 520.816 446.715 516.76 447.406C512.705 448.097 512.032 444.266 510.351 436.959C508.669 429.653 498.481 352.399 494.525 343.69C490.568 334.982 486.968 337.43 486.968 337.43Z" fill="#543A2F"></path></g><defs><clipPath id="clip0_4_137"><rect width="649" height="438" fill="white"></rect></clipPath></defs></svg>