<svg xmlns="http://www.w3.org/2000/svg" width="20" height="16" viewBox="0 0 20 16" fill="none"><g clip-path="url(#clip0_11_1029)"><path d="M19.5981 1.94832C18.8642 2.27344 18.0858 2.48684 17.2887 2.58143C18.119 2.08383 18.7564 1.29585 19.0566 0.356975C18.2674 0.825327 17.4039 1.15531 16.5034 1.33267C15.77 0.551272 14.7251 0.0629272 13.5685 0.0629272C11.348 0.0629272 9.54764 1.8632 9.54764 4.0836C9.54764 4.39877 9.58323 4.70561 9.65175 4.99996C6.31012 4.83223 3.34744 3.23154 1.36429 0.798927C1.01826 1.39276 0.819981 2.08352 0.819981 2.82029C0.819981 4.21527 1.52988 5.44589 2.60869 6.16697C1.97018 6.14697 1.34572 5.97451 0.787445 5.664C0.787215 5.68084 0.787215 5.69768 0.787215 5.7146C0.787215 7.6627 2.17317 9.28781 4.01248 9.65719C3.42039 9.81821 2.79933 9.84178 2.19675 9.72608C2.70836 11.3235 4.1933 12.4859 5.95269 12.5184C4.57661 13.5968 2.84287 14.2396 0.959158 14.2396C0.634565 14.2396 0.314565 14.2206 0 14.1834C1.77937 15.3242 3.89282 15.9899 6.16344 15.9899C13.5592 15.9899 17.6034 9.86312 17.6034 4.54989C17.6034 4.3755 17.5995 4.2021 17.5917 4.0297C18.3789 3.46066 19.0583 2.75584 19.5981 1.94832Z" fill="#55ACEE"></path></g><defs><clipPath id="clip0_11_1029"><rect width="19.5981" height="16" fill="white"></rect></clipPath></defs></svg>