<svg xmlns="http://www.w3.org/2000/svg" width="17" height="16" viewBox="0 0 17 16" fill="none"><g clip-path="url(#clip0_11_1031)"><path d="M0.598145 8.00012C0.598145 11.276 2.56802 14.0903 5.38683 15.3276C5.36433 14.7689 5.38283 14.0983 5.52608 13.4905C5.67989 12.8411 6.55546 9.13125 6.55546 9.13125C6.55546 9.13125 6.29989 8.62044 6.29989 7.8655C6.29989 6.67994 6.98702 5.7945 7.84277 5.7945C8.57046 5.7945 8.92202 6.34106 8.92202 6.99556C8.92202 7.72706 8.45546 8.82125 8.21552 9.83469C8.01508 10.6833 8.64102 11.3755 9.47821 11.3755C10.994 11.3755 12.0148 9.42869 12.0148 7.12206C12.0148 5.36869 10.8339 4.05631 8.68596 4.05631C6.25921 4.05631 4.74739 5.86606 4.74739 7.88756C4.74739 8.58456 4.95289 9.07606 5.27477 9.45669C5.42277 9.6315 5.44333 9.70181 5.38977 9.90256C5.35139 10.0497 5.26327 10.4041 5.22677 10.5446C5.17352 10.7472 5.00933 10.8196 4.82621 10.7448C3.70846 10.2885 3.18789 9.06444 3.18789 7.68844C3.18789 5.41587 5.10452 2.69088 8.90552 2.69088C11.9599 2.69088 13.9702 4.90112 13.9702 7.27369C13.9702 10.412 12.2255 12.7566 9.65358 12.7566C8.78989 12.7566 7.97746 12.2897 7.69914 11.7594C7.69914 11.7594 7.23471 13.6026 7.13633 13.9586C6.96671 14.5754 6.63471 15.1919 6.33114 15.6724C7.06724 15.89 7.83086 16.0005 8.59846 16.0004C13.0162 16.0004 16.5982 12.4186 16.5982 8.00012C16.5982 3.58181 13.0162 0 8.59846 0C4.18027 0 0.598145 3.58181 0.598145 8.00012Z" fill="#CB1F27"></path></g><defs><clipPath id="clip0_11_1031"><rect width="16" height="16" fill="white" transform="translate(0.598145)"></rect></clipPath></defs></svg>