<svg xmlns="http://www.w3.org/2000/svg" width="49" height="48" viewBox="0 0 49 48" fill="none"><path opacity="0.2" d="M45.5 24C45.5 25.5913 44.8679 27.1174 43.7426 28.2426C42.6174 29.3679 41.0913 30 39.5 30V37.5C39.5 37.8978 39.342 38.2794 39.0607 38.5607C38.7794 38.842 38.3978 39 38 39H11C10.6022 39 10.2206 38.842 9.93934 38.5607C9.65804 38.2794 9.5 37.8978 9.5 37.5V30C7.9087 30 6.38258 29.3679 5.25736 28.2426C4.13214 27.1174 3.5 25.5913 3.5 24C3.5 22.4087 4.13214 20.8826 5.25736 19.7574C6.38258 18.6321 7.9087 18 9.5 18V13.5C9.5 11.9087 10.1321 10.3826 11.2574 9.25736C12.3826 8.13214 13.9087 7.5 15.5 7.5H33.5C35.0913 7.5 36.6174 8.13214 37.7426 9.25736C38.8679 10.3826 39.5 11.9087 39.5 13.5V18C41.0913 18 42.6174 18.6321 43.7426 19.7574C44.8679 20.8826 45.5 22.4087 45.5 24Z" fill="#274061"></path><path d="M41 16.65V13.5C41 11.5109 40.2098 9.60322 38.8033 8.1967C37.3968 6.79018 35.4891 6 33.5 6H15.5C13.5109 6 11.6032 6.79018 10.1967 8.1967C8.79019 9.60322 8.00001 11.5109 8.00001 13.5V16.65C6.30458 16.9943 4.7803 17.9141 3.68544 19.2536C2.59059 20.5931 1.99249 22.27 1.99249 24C1.99249 25.73 2.59059 27.4069 3.68544 28.7464C4.7803 30.0859 6.30458 31.0057 8.00001 31.35V37.5C8.00001 38.2957 8.31608 39.0587 8.87869 39.6213C9.4413 40.1839 10.2044 40.5 11 40.5H38C38.7957 40.5 39.5587 40.1839 40.1213 39.6213C40.6839 39.0587 41 38.2957 41 37.5V31.35C42.6954 31.0057 44.2197 30.0859 45.3146 28.7464C46.4094 27.4069 47.0075 25.73 47.0075 24C47.0075 22.27 46.4094 20.5931 45.3146 19.2536C44.2197 17.9141 42.6954 16.9943 41 16.65ZM15.5 9H33.5C34.692 9.00494 35.8337 9.48063 36.6765 10.3235C37.5194 11.1663 37.9951 12.308 38 13.5V16.65C36.3076 16.9991 34.787 17.9204 33.6943 19.2591C32.6015 20.5977 32.0032 22.272 32 24H17C16.9968 22.272 16.3985 20.5977 15.3058 19.2591C14.213 17.9204 12.6924 16.9991 11 16.65V13.5C11.0049 12.308 11.4806 11.1663 12.3235 10.3235C13.1663 9.48063 14.3081 9.00494 15.5 9ZM39.575 28.5H39.5C39.1022 28.5 38.7207 28.658 38.4394 28.9393C38.158 29.2206 38 29.6022 38 30V37.5H11V30C11 29.8039 10.9611 29.6097 10.8855 29.4288C10.8099 29.2478 10.6991 29.0837 10.5596 28.9459C10.42 28.8081 10.2545 28.6994 10.0726 28.6261C9.89074 28.5527 9.6961 28.5163 9.50001 28.5188H9.42501C8.53914 28.504 7.67734 28.228 6.94765 27.7255C6.21796 27.2229 5.65286 26.5162 5.32318 25.6938C4.99351 24.8714 4.91393 23.97 5.09442 23.1026C5.27492 22.2352 5.70746 21.4404 6.33782 20.8178C6.96817 20.1952 7.76829 19.7725 8.63788 19.6027C9.50746 19.433 10.4078 19.5237 11.226 19.8635C12.0443 20.2034 12.744 20.7772 13.2375 21.513C13.7309 22.2489 13.9962 23.114 14 24V31.5C14 31.8978 14.158 32.2794 14.4394 32.5607C14.7207 32.842 15.1022 33 15.5 33C15.8978 33 16.2794 32.842 16.5607 32.5607C16.842 32.2794 17 31.8978 17 31.5V27H32V31.5C32 31.8978 32.158 32.2794 32.4394 32.5607C32.7207 32.842 33.1022 33 33.5 33C33.8978 33 34.2794 32.842 34.5607 32.5607C34.842 32.2794 35 31.8978 35 31.5V24C35.0001 23.1132 35.2623 22.2462 35.7535 21.5079C36.2447 20.7696 36.9432 20.1929 37.7611 19.8502C38.579 19.5075 39.4799 19.4141 40.3507 19.5818C41.2215 19.7494 42.0234 20.1706 42.6556 20.7925C43.2878 21.4143 43.7222 22.2091 43.9042 23.077C44.0862 23.9449 44.0077 24.8473 43.6786 25.6707C43.3495 26.4942 42.7844 27.2021 42.0543 27.7054C41.3242 28.2088 40.4617 28.4852 39.575 28.5Z" fill="#274061"></path></svg>