<svg xmlns="http://www.w3.org/2000/svg" width="49" height="48" viewBox="0 0 49 48" fill="none"><path opacity="0.2" d="M39.5 18V40.5C39.5 40.8978 39.342 41.2794 39.0607 41.5607C38.7794 41.842 38.3978 42 38 42H33.5V28.5C33.5 27.7044 33.1839 26.9413 32.6213 26.3787C32.0587 25.8161 31.2956 25.5 30.5 25.5H18.5C17.7044 25.5 16.9413 25.8161 16.3787 26.3787C15.8161 26.9413 15.5 27.7044 15.5 28.5V42H11C10.6022 42 10.2206 41.842 9.93934 41.5607C9.65804 41.2794 9.5 40.8978 9.5 40.5V18C9.5 15.6131 10.4482 13.3239 12.136 11.636C13.8239 9.94821 16.1131 9 18.5 9H30.5C32.8869 9 35.1761 9.94821 36.864 11.636C38.5518 13.3239 39.5 15.6131 39.5 18Z" fill="#59E7ED"></path><path d="M32 7.6125V6C31.9951 4.80805 31.5194 3.66632 30.6765 2.82347C29.8337 1.98063 28.692 1.50494 27.5 1.5H21.5C20.308 1.50494 19.1663 1.98063 18.3235 2.82347C17.4806 3.66632 17.0049 4.80805 17 6V7.6125C14.5018 7.97308 12.2171 9.22149 10.5643 11.1291C8.9115 13.0368 8.00116 15.4759 8 18V40.5C8 41.2957 8.31607 42.0587 8.87868 42.6213C9.44129 43.1839 10.2044 43.5 11 43.5H38C38.7956 43.5 39.5587 43.1839 40.1213 42.6213C40.6839 42.0587 41 41.2957 41 40.5V18C40.9988 15.4759 40.0885 13.0368 38.4357 11.1291C36.7829 9.22149 34.4982 7.97308 32 7.6125ZM21.5 4.5H27.5C27.8978 4.5 28.2794 4.65804 28.5607 4.93934C28.842 5.22064 29 5.60218 29 6V7.5H20V6C20 5.60218 20.158 5.22064 20.4393 4.93934C20.7206 4.65804 21.1022 4.5 21.5 4.5ZM32 30H17V28.5C17 28.1022 17.158 27.7206 17.4393 27.4393C17.7206 27.158 18.1022 27 18.5 27H30.5C30.8978 27 31.2794 27.158 31.5607 27.4393C31.842 27.7206 32 28.1022 32 28.5V30ZM17 33H26V34.5C26 34.8978 26.158 35.2794 26.4393 35.5607C26.7206 35.842 27.1022 36 27.5 36C27.8978 36 28.2794 35.842 28.5607 35.5607C28.842 35.2794 29 34.8978 29 34.5V33H32V40.5H17V33ZM38 40.5H35V28.5C34.9951 27.308 34.5194 26.1663 33.6765 25.3235C32.8337 24.4806 31.692 24.0049 30.5 24H18.5C17.308 24.0049 16.1663 24.4806 15.3235 25.3235C14.4806 26.1663 14.0049 27.308 14 28.5V40.5H11V18C11 16.0109 11.7902 14.1032 13.1967 12.6967C14.6032 11.2902 16.5109 10.5 18.5 10.5H30.5C32.4891 10.5 34.3968 11.2902 35.8033 12.6967C37.2098 14.1032 38 16.0109 38 18V40.5ZM29 16.5C29 16.8978 28.842 17.2794 28.5607 17.5607C28.2794 17.842 27.8978 18 27.5 18H21.5C21.1022 18 20.7206 17.842 20.4393 17.5607C20.158 17.2794 20 16.8978 20 16.5C20 16.1022 20.158 15.7206 20.4393 15.4393C20.7206 15.158 21.1022 15 21.5 15H27.5C27.8978 15 28.2794 15.158 28.5607 15.4393C28.842 15.7206 29 16.1022 29 16.5Z" fill="#59E7ED"></path></svg>