<svg xmlns="http://www.w3.org/2000/svg" width="49" height="48" viewBox="0 0 49 48" fill="none"><path opacity="0.2" d="M20 15H39.5C41.0913 15 42.6174 15.6321 43.7426 16.7574C44.8679 17.8826 45.5 19.4087 45.5 21V31.5H20V15Z" fill="#274061"></path><path d="M39.5 13.5H5V9C5 8.60218 4.84196 8.22064 4.56066 7.93934C4.27936 7.65804 3.89782 7.5 3.5 7.5C3.10218 7.5 2.72064 7.65804 2.43934 7.93934C2.15804 8.22064 2 8.60218 2 9V39C2 39.3978 2.15804 39.7794 2.43934 40.0607C2.72064 40.342 3.10218 40.5 3.5 40.5C3.89782 40.5 4.27936 40.342 4.56066 40.0607C4.84196 39.7794 5 39.3978 5 39V33H44V39C44 39.3978 44.158 39.7794 44.4393 40.0607C44.7206 40.342 45.1022 40.5 45.5 40.5C45.8978 40.5 46.2794 40.342 46.5607 40.0607C46.842 39.7794 47 39.3978 47 39V21C47 19.0109 46.2098 17.1032 44.8033 15.6967C43.3968 14.2902 41.4891 13.5 39.5 13.5ZM5 16.5H18.5V30H5V16.5ZM21.5 30V16.5H39.5C40.692 16.5049 41.8337 16.9806 42.6765 17.8235C43.5194 18.6663 43.9951 19.808 44 21V30H21.5Z" fill="#274061"></path></svg>