<svg xmlns="http://www.w3.org/2000/svg" width="49" height="48" viewBox="0 0 49 48" fill="none"><path opacity="0.2" d="M45.5 21V27C45.5 29.3869 44.5518 31.6761 42.864 33.364C41.1761 35.0518 38.8869 36 36.5 36H12.5C10.1131 36 7.82387 35.0518 6.13604 33.364C4.44821 31.6761 3.5 29.3869 3.5 27V21C3.5 20.6022 3.65804 20.2206 3.93934 19.9393C4.22064 19.658 4.60218 19.5 5 19.5H26V27H38V19.5H44C44.3978 19.5 44.7794 19.658 45.0607 19.9393C45.342 20.2206 45.5 20.6022 45.5 21Z" fill="#274061"></path><path d="M44 18H39.5C39.5 17.6022 39.342 17.2206 39.0607 16.9393C38.7794 16.658 38.3978 16.5 38 16.5H26C25.6022 16.5 25.2206 16.658 24.9393 16.9393C24.658 17.2206 24.5 17.6022 24.5 18H12.5V9.75C12.5 9.15326 12.7371 8.58097 13.159 8.15901C13.581 7.73705 14.1533 7.5 14.75 7.5C15.3467 7.5 15.919 7.73705 16.341 8.15901C16.7629 8.58097 17 9.15326 17 9.75C17 10.1478 17.158 10.5294 17.4393 10.8107C17.7206 11.092 18.1022 11.25 18.5 11.25C18.8978 11.25 19.2794 11.092 19.5607 10.8107C19.842 10.5294 20 10.1478 20 9.75C20 8.35761 19.4469 7.02226 18.4623 6.03769C17.4777 5.05312 16.1424 4.5 14.75 4.5C13.3576 4.5 12.0223 5.05312 11.0377 6.03769C10.0531 7.02226 9.5 8.35761 9.5 9.75V18H5C4.20435 18 3.44129 18.3161 2.87868 18.8787C2.31607 19.4413 2 20.2044 2 21V27C2 29.7848 3.10625 32.4555 5.07538 34.4246C7.04451 36.3938 9.71523 37.5 12.5 37.5V40.5C12.5 40.8978 12.658 41.2794 12.9393 41.5607C13.2206 41.842 13.6022 42 14 42C14.3978 42 14.7794 41.842 15.0607 41.5607C15.342 41.2794 15.5 40.8978 15.5 40.5V37.5H33.5V40.5C33.5 40.8978 33.658 41.2794 33.9393 41.5607C34.2206 41.842 34.6022 42 35 42C35.3978 42 35.7794 41.842 36.0607 41.5607C36.342 41.2794 36.5 40.8978 36.5 40.5V37.5C39.2848 37.5 41.9555 36.3938 43.9246 34.4246C45.8938 32.4555 47 29.7848 47 27V21C47 20.2044 46.6839 19.4413 46.1213 18.8787C45.5587 18.3161 44.7957 18 44 18ZM36.5 19.5V25.5H27.5V19.5H36.5ZM44 27C44 27.9849 43.806 28.9602 43.4291 29.8701C43.0522 30.7801 42.4997 31.6069 41.8033 32.3033C41.1069 32.9997 40.2801 33.5522 39.3701 33.9291C38.4602 34.306 37.4849 34.5 36.5 34.5H12.5C10.5109 34.5 8.60322 33.7098 7.1967 32.3033C5.79018 30.8968 5 28.9891 5 27V21H24.5V27C24.5 27.3978 24.658 27.7794 24.9393 28.0607C25.2206 28.342 25.6022 28.5 26 28.5H38C38.3978 28.5 38.7794 28.342 39.0607 28.0607C39.342 27.7794 39.5 27.3978 39.5 27V21H44V27Z" fill="#274061"></path></svg>