<svg xmlns="http://www.w3.org/2000/svg" width="49" height="48" viewBox="0 0 49 48" fill="none"><g clip-path="url(#clip0_42_49)"><path opacity="0.2" d="M41 16.5V34.5C41.0025 35.0916 40.8878 35.6779 40.6626 36.225C40.4373 36.7721 40.1059 37.2692 39.6876 37.6875C39.2692 38.1059 38.7721 38.4372 38.225 38.6625C37.678 38.8878 37.0917 39.0025 36.5 39H12.5C11.9084 39.0025 11.3221 38.8878 10.775 38.6625C10.2279 38.4372 9.73089 38.1059 9.31253 37.6875C8.89417 37.2692 8.5628 36.7721 8.33753 36.225C8.11226 35.6779 7.99756 35.0916 8.00004 34.5V16.5C8.00004 16.1022 8.15807 15.7206 8.43938 15.4393C8.72068 15.158 9.10221 15 9.50004 15H39.5C39.8979 15 40.2794 15.158 40.5607 15.4393C40.842 15.7206 41 16.1022 41 16.5Z" fill="#59E7ED"></path><path d="M17 9V3C17 2.60218 17.158 2.22064 17.4393 1.93934C17.7206 1.65804 18.1022 1.5 18.5 1.5C18.8978 1.5 19.2794 1.65804 19.5607 1.93934C19.842 2.22064 20 2.60218 20 3V9C20 9.39782 19.842 9.77936 19.5607 10.0607C19.2794 10.342 18.8978 10.5 18.5 10.5C18.1022 10.5 17.7206 10.342 17.4393 10.0607C17.158 9.77936 17 9.39782 17 9ZM24.5 10.5C24.8978 10.5 25.2794 10.342 25.5607 10.0607C25.842 9.77936 26 9.39782 26 9V3C26 2.60218 25.842 2.22064 25.5607 1.93934C25.2794 1.65804 24.8978 1.5 24.5 1.5C24.1022 1.5 23.7206 1.65804 23.4393 1.93934C23.158 2.22064 23 2.60218 23 3V9C23 9.39782 23.158 9.77936 23.4393 10.0607C23.7206 10.342 24.1022 10.5 24.5 10.5ZM30.5 10.5C30.8978 10.5 31.2794 10.342 31.5607 10.0607C31.842 9.77936 32 9.39782 32 9V3C32 2.60218 31.842 2.22064 31.5607 1.93934C31.2794 1.65804 30.8978 1.5 30.5 1.5C30.1022 1.5 29.7206 1.65804 29.4393 1.93934C29.158 2.22064 29 2.60218 29 3V9C29 9.39782 29.158 9.77936 29.4393 10.0607C29.7206 10.342 30.1022 10.5 30.5 10.5ZM47.9 19.2L42.5 23.25V34.5C42.4951 36.0898 41.8613 37.613 40.7372 38.7372C39.613 39.8613 38.0898 40.4951 36.5 40.5H12.5C10.9102 40.4951 9.38698 39.8613 8.26283 38.7372C7.13868 37.613 6.50495 36.0898 6.50001 34.5V23.25L1.10001 19.2C0.781746 18.9613 0.571343 18.606 0.515082 18.2121C0.458821 17.8183 0.561311 17.4183 0.800006 17.1C1.0387 16.7817 1.39405 16.5713 1.78787 16.5151C2.1817 16.4588 2.58175 16.5613 2.90001 16.8L6.50001 19.5V16.5C6.50001 15.7044 6.81608 14.9413 7.37869 14.3787C7.9413 13.8161 8.70436 13.5 9.50001 13.5H39.5C40.2957 13.5 41.0587 13.8161 41.6213 14.3787C42.1839 14.9413 42.5 15.7044 42.5 16.5V19.5L46.1 16.8C46.4183 16.5613 46.8183 16.4588 47.2121 16.5151C47.606 16.5713 47.9613 16.7817 48.2 17.1C48.4387 17.4183 48.5412 17.8183 48.4849 18.2121C48.4287 18.606 48.2183 18.9613 47.9 19.2ZM39.5 16.5H9.50001V34.5C9.50001 35.2957 9.81608 36.0587 10.3787 36.6213C10.9413 37.1839 11.7044 37.5 12.5 37.5H36.5C37.2957 37.5 38.0587 37.1839 38.6213 36.6213C39.1839 36.0587 39.5 35.2957 39.5 34.5V16.5Z" fill="#59E7ED"></path></g><defs><clipPath id="clip0_42_49"><rect width="48" height="48" fill="white" transform="translate(0.5)"></rect></clipPath></defs></svg>