<svg xmlns="http://www.w3.org/2000/svg" width="49" height="48" viewBox="0 0 49 48" fill="none"><path d="M41 13.5H34.4375C35.3823 12.3069 35.8384 10.7993 35.7134 9.28258C35.5885 7.76584 34.8919 6.35325 33.7646 5.33083C32.6373 4.30841 31.1636 3.75257 29.6419 3.77585C28.1202 3.79913 26.6642 4.39979 25.5687 5.45621C25.1269 5.90353 24.7653 6.42364 24.5 6.99371C24.2347 6.42364 23.8731 5.90353 23.4313 5.45621C22.3358 4.39979 20.8798 3.79913 19.3581 3.77585C17.8364 3.75257 16.3627 4.30841 15.2354 5.33083C14.1081 6.35325 13.4115 7.76584 13.2866 9.28258C13.1616 10.7993 13.6177 12.3069 14.5625 13.5H8C7.20435 13.5 6.44129 13.816 5.87868 14.3786C5.31607 14.9412 5 15.7043 5 16.5V22.5C5 23.2956 5.31607 24.0587 5.87868 24.6213C6.44129 25.1839 7.20435 25.5 8 25.5V37.5C8 38.2956 8.31607 39.0587 8.87868 39.6213C9.44129 40.1839 10.2044 40.5 11 40.5H38C38.7957 40.5 39.5587 40.1839 40.1213 39.6213C40.6839 39.0587 41 38.2956 41 37.5V25.5C41.7957 25.5 42.5587 25.1839 43.1213 24.6213C43.6839 24.0587 44 23.2956 44 22.5V16.5C44 15.7043 43.6839 14.9412 43.1213 14.3786C42.5587 13.816 41.7957 13.5 41 13.5ZM27.6875 7.57496C27.9604 7.2738 28.2916 7.03122 28.6611 6.86194C29.0305 6.69267 29.4305 6.60022 29.8368 6.59022C30.2431 6.58022 30.6472 6.65287 31.0245 6.80375C31.4018 6.95464 31.7446 7.18063 32.032 7.46799C32.3193 7.75536 32.5453 8.09811 32.6962 8.47546C32.8471 8.85281 32.9197 9.25688 32.9097 9.66315C32.8997 10.0694 32.8073 10.4694 32.638 10.8389C32.4687 11.2084 32.2262 11.5396 31.925 11.8125C31.0063 12.75 28.325 13.2562 26.0563 13.4437C26.2438 11.175 26.75 8.49371 27.6875 7.57496ZM17.075 7.57496C17.6398 7.01845 18.4009 6.7065 19.1937 6.7065C19.9866 6.7065 20.7477 7.01845 21.3125 7.57496C22.25 8.49371 22.7562 11.175 22.9437 13.4437C20.675 13.2562 17.9938 12.75 17.075 11.8125C16.5185 11.2477 16.2065 10.4866 16.2065 9.69371C16.2065 8.90081 16.5185 8.13975 17.075 7.57496ZM8 16.5H23V22.5H8V16.5ZM11 25.5H23V37.5H11V25.5ZM38 37.5H26V25.5H38V37.5ZM41 22.5H26V16.5H41V22.5Z" fill="#59E7ED"></path><path opacity="0.2" d="M39.5 24V37.5C39.5 37.8978 39.342 38.2794 39.0607 38.5607C38.7794 38.842 38.3978 39 38 39H11C10.6022 39 10.2206 38.842 9.93934 38.5607C9.65804 38.2794 9.5 37.8978 9.5 37.5V24H39.5Z" fill="#59E7ED"></path></svg>