<svg xmlns="http://www.w3.org/2000/svg" width="49" height="48" viewBox="0 0 49 48" fill="none"><path opacity="0.2" d="M29 39V30C29 29.6022 28.842 29.2207 28.5607 28.9394C28.2794 28.6581 27.8978 28.5 27.5 28.5H21.5C21.1022 28.5 20.7206 28.6581 20.4393 28.9394C20.158 29.2207 20 29.6022 20 30V39C20 39.3979 19.842 39.7794 19.5607 40.0607C19.2794 40.342 18.8978 40.5 18.5 40.5H9.5C9.10218 40.5 8.72064 40.342 8.43934 40.0607C8.15804 39.7794 8 39.3979 8 39V21.6563C8.00336 21.4487 8.04822 21.2439 8.13194 21.0539C8.21567 20.8639 8.33656 20.6926 8.4875 20.55L23.4875 6.91879C23.764 6.66581 24.1252 6.52551 24.5 6.52551C24.8748 6.52551 25.236 6.66581 25.5125 6.91879L40.5125 20.55C40.667 20.6898 40.7902 20.8605 40.8742 21.0512C40.9582 21.2418 41.0011 21.448 41 21.6563V39C41 39.3979 40.842 39.7794 40.5607 40.0607C40.2794 40.342 39.8978 40.5 39.5 40.5H30.5C30.1022 40.5 29.7206 40.342 29.4393 40.0607C29.158 39.7794 29 39.3979 29 39Z" fill="#59E7ED"></path><path d="M39.5 42H30.5C29.7044 42 28.9413 41.684 28.3787 41.1214C27.8161 40.5588 27.5 39.7957 27.5 39V30H21.5V39C21.5 39.7957 21.1839 40.5588 20.6213 41.1214C20.0587 41.684 19.2956 42 18.5 42H9.5C8.70435 42 7.94129 41.684 7.37868 41.1214C6.81607 40.5588 6.5 39.7957 6.5 39V21.6563C6.50013 21.24 6.58688 20.8284 6.75474 20.4475C6.9226 20.0666 7.16788 19.7248 7.475 19.4438L22.475 5.81255C23.028 5.3066 23.7504 5.026 24.5 5.026C25.2496 5.026 25.972 5.3066 26.525 5.81255L41.525 19.4438C41.8321 19.7248 42.0774 20.0666 42.2453 20.4475C42.4131 20.8284 42.4999 21.24 42.5 21.6563V39C42.5 39.7957 42.1839 40.5588 41.6213 41.1214C41.0587 41.684 40.2957 42 39.5 42ZM21.5 27H27.5C28.2956 27 29.0587 27.3161 29.6213 27.8787C30.1839 28.4413 30.5 29.2044 30.5 30V39H39.5V21.6563L24.5 8.02505L9.5 21.6563V39H18.5V30C18.5 29.2044 18.8161 28.4413 19.3787 27.8787C19.9413 27.3161 20.7044 27 21.5 27Z" fill="#59E7ED"></path></svg>