<svg xmlns="http://www.w3.org/2000/svg" width="49" height="48" viewBox="0 0 49 48" fill="none"><path opacity="0.2" d="M39.5 25.5V40.5C39.5 40.8978 39.342 41.2794 39.0607 41.5607C38.7794 41.842 38.3978 42 38 42H11C10.6022 42 10.2206 41.842 9.93934 41.5607C9.65804 41.2794 9.5 40.8978 9.5 40.5V25.5C9.5 23.9087 10.1321 22.3826 11.2574 21.2574C12.3826 20.1321 13.9087 19.5 15.5 19.5H33.5C35.0913 19.5 36.6174 20.1321 37.7426 21.2574C38.8679 22.3826 39.5 23.9087 39.5 25.5Z" fill="#59E7ED"></path><path d="M35 18.15V16.5C34.9951 14.9102 34.3613 13.387 33.2372 12.2628C32.113 11.1387 30.5898 10.5049 29 10.5H26V6H32C32.3978 6 32.7794 6.15804 33.0607 6.43934C33.342 6.72064 33.5 7.10218 33.5 7.5C33.5 7.89782 33.658 8.27936 33.9393 8.56066C34.2206 8.84196 34.6022 9 35 9C35.3978 9 35.7794 8.84196 36.0607 8.56066C36.342 8.27936 36.5 7.89782 36.5 7.5C36.4951 6.30805 36.0194 5.16632 35.1765 4.32347C34.3337 3.48063 33.192 3.00494 32 3H20C19.6022 3 19.2206 3.15804 18.9393 3.43934C18.658 3.72064 18.5 4.10218 18.5 4.5C18.5 4.89782 18.658 5.27936 18.9393 5.56066C19.2206 5.84196 19.6022 6 20 6H23V10.5H20C18.4102 10.5049 16.887 11.1387 15.7628 12.2628C14.6387 13.387 14.0049 14.9102 14 16.5V18.15C12.3076 18.4991 10.787 19.4204 9.69425 20.7591C8.60148 22.0977 8.00316 23.772 8 25.5V40.5C8 41.2957 8.31607 42.0587 8.87868 42.6213C9.44129 43.1839 10.2044 43.5 11 43.5H38C38.7956 43.5 39.5587 43.1839 40.1213 42.6213C40.6839 42.0587 41 41.2957 41 40.5V25.5C40.9968 23.772 40.3985 22.0977 39.3057 20.7591C38.213 19.4204 36.6924 18.4991 35 18.15ZM20 13.5H29C29.7956 13.5 30.5587 13.8161 31.1213 14.3787C31.6839 14.9413 32 15.7044 32 16.5V18H17V16.5C17 15.7044 17.3161 14.9413 17.8787 14.3787C18.4413 13.8161 19.2044 13.5 20 13.5ZM38 40.5H11V25.5C11.0049 24.308 11.4806 23.1663 12.3235 22.3235C13.1663 21.4806 14.308 21.0049 15.5 21H33.5C34.692 21.0049 35.8337 21.4806 36.6765 22.3235C37.5194 23.1663 37.9951 24.308 38 25.5V40.5Z" fill="#59E7ED"></path></svg>