<svg xmlns="http://www.w3.org/2000/svg" width="49" height="48" viewBox="0 0 49 48" fill="none"><path opacity="0.2" d="M39.5 19.5C39.5007 21.7722 38.9845 24.0148 37.9905 26.0581C36.9964 28.1014 35.5507 29.8917 33.7625 31.2938C33.2152 31.7168 32.7718 32.2595 32.4664 32.8802C32.1609 33.5009 32.0014 34.1832 32 34.875V36C32 36.3978 31.842 36.7794 31.5607 37.0607C31.2794 37.342 30.8979 37.5 30.5 37.5H18.5C18.1022 37.5 17.7207 37.342 17.4394 37.0607C17.1581 36.7794 17 36.3978 17 36V34.875C16.9953 34.1884 16.8362 33.5117 16.5343 32.895C16.2324 32.2783 15.7956 31.7374 15.2563 31.3125C13.4705 29.924 12.0242 28.1472 11.0269 26.1169C10.0296 24.0865 9.50744 21.8558 9.50004 19.5938C9.46254 11.4563 16.0063 4.68751 24.1438 4.50001C26.1427 4.45508 28.1305 4.80973 29.9906 5.54318C31.8506 6.27662 33.5455 7.37409 34.9758 8.77121C36.4061 10.1683 37.5431 11.837 38.3199 13.6793C39.0968 15.5217 39.498 17.5006 39.5 19.5Z" fill="#274061"></path><path d="M33.5 43.5C33.5 43.8979 33.3419 44.2794 33.0606 44.5607C32.7793 44.842 32.3978 45 32 45H17C16.6021 45 16.2206 44.842 15.9393 44.5607C15.658 44.2794 15.5 43.8979 15.5 43.5C15.5 43.1022 15.658 42.7207 15.9393 42.4394C16.2206 42.1581 16.6021 42 17 42H32C32.3978 42 32.7793 42.1581 33.0606 42.4394C33.3419 42.7207 33.5 43.1022 33.5 43.5ZM41 19.5C41.0049 21.9993 40.4401 24.4669 39.3485 26.7151C38.2568 28.9634 36.6671 30.9333 34.7 32.475C34.3284 32.7555 34.0268 33.118 33.8186 33.5344C33.6105 33.9507 33.5014 34.4096 33.5 34.875V36C33.5 36.7957 33.1839 37.5587 32.6213 38.1214C32.0587 38.684 31.2956 39 30.5 39H18.5C17.7043 39 16.9412 38.684 16.3786 38.1214C15.816 37.5587 15.5 36.7957 15.5 36V34.875C15.4987 34.4161 15.3934 33.9634 15.1921 33.551C14.9907 33.1385 14.6985 32.7771 14.3375 32.4938C12.3745 30.9627 10.7843 29.0063 9.68657 26.7719C8.58885 24.5375 8.01218 22.0833 7.99996 19.5938C7.94371 10.65 15.1812 3.20629 24.1062 3.00004C26.3066 2.94494 28.4957 3.33116 30.5444 4.1359C32.5931 4.94064 34.4599 6.14759 36.0345 7.68553C37.6092 9.22347 38.8598 11.0612 39.7126 13.0904C40.5654 15.1195 41.0032 17.299 41 19.5ZM38 19.5C37.9979 17.7008 37.6367 15.92 36.9375 14.2622C36.2383 12.6043 35.2153 11.1027 33.9282 9.84538C32.6412 8.58804 31.1161 7.60027 29.4424 6.93997C27.7687 6.27966 25.98 5.96011 24.1812 6.00004C16.8687 6.16879 10.9625 12.2625 11 19.575C11.0066 21.6116 11.4759 23.6201 12.3724 25.4488C13.2689 27.2775 14.5691 28.8786 16.175 30.1313C16.8988 30.6922 17.4846 31.4113 17.8876 32.2335C18.2906 33.0558 18.5001 33.9593 18.5 34.875V36H23V27.6188L17.4312 22.0688C17.192 21.7773 17.0698 21.4073 17.0883 21.0308C17.1068 20.6542 17.2647 20.298 17.5313 20.0314C17.7979 19.7648 18.1541 19.6068 18.5307 19.5884C18.9073 19.5699 19.2773 19.6921 19.5687 19.9313L24.5 24.8813L29.4312 19.9313C29.7227 19.6921 30.0926 19.5699 30.4692 19.5884C30.8458 19.6068 31.202 19.7648 31.4686 20.0314C31.7352 20.298 31.8932 20.6542 31.9116 21.0308C31.9301 21.4073 31.8079 21.7773 31.5687 22.0688L26 27.6188V36H30.5V34.875C30.5006 33.9549 30.7122 33.0471 31.1185 32.2215C31.5248 31.3958 32.115 30.6744 32.8437 30.1125C34.4557 28.8541 35.7584 27.2435 36.6521 25.404C37.5458 23.5646 38.0069 21.5451 38 19.5Z" fill="#274061"></path></svg>