<svg xmlns="http://www.w3.org/2000/svg" width="49" height="48" viewBox="0 0 49 48" fill="none"><path opacity="0.2" d="M12.5001 36C3.50006 21 15.5001 6 41.0001 7.5C42.5001 33 27.5001 45 12.5001 36Z" fill="#274061"></path><path d="M42.5 7.4062C42.4739 7.04188 42.3173 6.69917 42.0591 6.4409C41.8008 6.18262 41.4581 6.02607 41.0938 5.99995C26.7875 5.1562 15.3313 9.4687 10.4375 17.55C8.74367 20.3134 7.90838 23.5175 8.03752 26.7562C8.15002 29.7375 9.01252 32.775 10.625 35.7562L6.93126 39.4312C6.64959 39.7156 6.49158 40.0997 6.49158 40.5C6.49158 40.9002 6.64959 41.2843 6.93126 41.5687C7.21798 41.8459 7.60119 42.0009 8.00002 42.0009C8.39884 42.0009 8.78205 41.8459 9.06877 41.5687L12.7438 37.875C15.725 39.4875 18.7625 40.35 21.7438 40.4625H22.3625C25.3924 40.4755 28.3659 39.6444 30.95 38.0625C39.0313 33.1687 43.3438 21.7125 42.5 7.4062ZM29.4125 35.4937C25.1188 38.0812 20.0563 38.1187 14.975 35.6437L31.5688 19.0687C31.808 18.7773 31.9302 18.4073 31.9117 18.0307C31.8932 17.6541 31.7353 17.2979 31.4687 17.0313C31.2021 16.7647 30.8459 16.6068 30.4693 16.5883C30.0927 16.5698 29.7227 16.692 29.4313 16.9312L12.8563 33.525C10.3813 28.4437 10.4188 23.3812 13.0063 19.0875C17.15 12.2437 27.0313 8.4937 39.575 8.92495C40.0063 21.4687 36.2563 31.35 29.4125 35.4937Z" fill="#274061"></path></svg>