<svg xmlns="http://www.w3.org/2000/svg" width="49" height="48" viewBox="0 0 49 48" fill="none"><path opacity="0.2" d="M40.25 24.75L29.4875 35.5125C28.9318 36.0703 28.2714 36.513 27.5443 36.815C26.8171 37.117 26.0374 37.2725 25.25 37.2725C24.4626 37.2725 23.683 37.117 22.9558 36.815C22.2286 36.513 21.5682 36.0703 21.0125 35.5125L12.9875 27.4875C12.4297 26.9318 11.9871 26.2714 11.685 25.5442C11.383 24.8171 11.2275 24.0374 11.2275 23.25C11.2275 22.4626 11.383 21.6829 11.685 20.9558C11.9871 20.2286 12.4297 19.5682 12.9875 19.0125L23.75 8.25L40.25 24.75Z" fill="#59E7ED"></path><path d="M45.0688 12.4312C44.7844 12.1495 44.4003 11.9915 44 11.9915C43.5997 11.9915 43.2157 12.1495 42.9313 12.4312L36.5 18.8812L29.6188 11.9999L36.0688 5.56869C36.308 5.27725 36.4302 4.90725 36.4117 4.53068C36.3932 4.1541 36.2353 3.79786 35.9687 3.53126C35.7021 3.26466 35.3459 3.10675 34.9693 3.08826C34.5927 3.06976 34.2227 3.192 33.9313 3.43119L27.5 9.88119L22.5688 4.93119C22.2773 4.692 21.9073 4.56976 21.5307 4.58826C21.1542 4.60675 20.7979 4.76466 20.5313 5.03126C20.2647 5.29786 20.1068 5.6541 20.0883 6.03068C20.0698 6.40725 20.1921 6.77725 20.4313 7.06869L21.6313 8.24994L11.9375 17.9437C10.5338 19.3529 9.74561 21.2609 9.74561 23.2499C9.74561 25.239 10.5338 27.147 11.9375 28.5562L14.8813 31.4999L5.43126 40.9312C5.14959 41.2156 4.99158 41.5997 4.99158 41.9999C4.99158 42.4002 5.14959 42.7843 5.43126 43.0687C5.71798 43.3459 6.10119 43.5009 6.50002 43.5009C6.89884 43.5009 7.28206 43.3459 7.56877 43.0687L17 33.6187L19.9438 36.5624C21.353 37.9662 23.261 38.7543 25.25 38.7543C27.2391 38.7543 29.1471 37.9662 30.5563 36.5624L40.25 26.8687L41.4313 28.0687C41.718 28.3459 42.1012 28.5009 42.5 28.5009C42.8988 28.5009 43.2821 28.3459 43.5688 28.0687C43.8504 27.7843 44.0085 27.4002 44.0085 26.9999C44.0085 26.5997 43.8504 26.2156 43.5688 25.9312L38.6188 20.9999L45.0688 14.5687C45.3504 14.2843 45.5085 13.9002 45.5085 13.4999C45.5085 13.0997 45.3504 12.7156 45.0688 12.4312ZM28.4375 34.4437C28.0195 34.8632 27.5227 35.1961 26.9757 35.4232C26.4287 35.6503 25.8423 35.7672 25.25 35.7672C24.6578 35.7672 24.0713 35.6503 23.5243 35.4232C22.9774 35.1961 22.4806 34.8632 22.0625 34.4437L14.0563 26.4374C13.2136 25.5907 12.7405 24.4446 12.7405 23.2499C12.7405 22.0553 13.2136 20.9092 14.0563 20.0624L23.75 10.3687L38.1313 24.7499L28.4375 34.4437Z" fill="#59E7ED"></path></svg>