<svg xmlns="http://www.w3.org/2000/svg" width="49" height="48" viewBox="0 0 49 48" fill="none"><path opacity="0.2" d="M24.5 4.5C24.5 4.5 43.25 16.5 43.25 26.25C43.2516 28.1062 42.7233 29.9242 41.7273 31.4905C40.7312 33.0567 39.3088 34.3061 37.6271 35.0918C35.9454 35.8775 34.0744 36.1669 32.234 35.9259C30.3936 35.6848 28.6602 34.9235 27.2375 33.7312L30.5 43.5H18.5L21.7625 33.7312C20.3399 34.9235 18.6065 35.6848 16.766 35.9259C14.9256 36.1669 13.0546 35.8775 11.3729 35.0918C9.69124 34.3061 8.26879 33.0567 7.27273 31.4905C6.27668 29.9242 5.74841 28.1062 5.75 26.25C5.75 16.5 24.5 4.5 24.5 4.5Z" fill="#274061"></path><path d="M30.5 45H18.5C18.2621 45.0023 18.0271 44.9473 17.815 44.8396C17.6028 44.7319 17.4198 44.5747 17.2812 44.3813C17.1439 44.188 17.0536 43.9652 17.0178 43.7308C16.982 43.4963 17.0016 43.2568 17.075 43.0313L19.1188 36.9C17.4259 37.4751 15.6204 37.6385 13.8518 37.3765C12.0832 37.1146 10.4026 36.4349 8.94907 35.3938C7.49559 34.3528 6.31117 32.9803 5.49397 31.3901C4.67677 29.7999 4.25033 28.0379 4.25 26.25C4.25 21.7688 7.56875 16.5 14.1125 10.6125C17.113 7.91472 20.3161 5.45124 23.6937 3.24377C23.9338 3.08802 24.2138 3.00513 24.5 3.00513C24.7862 3.00513 25.0662 3.08802 25.3063 3.24377C28.6839 5.45124 31.887 7.91472 34.8875 10.6125C41.4312 16.5 44.75 21.7688 44.75 26.25C44.7497 28.0379 44.3232 29.7999 43.506 31.3901C42.6888 32.9803 41.5044 34.3528 40.0509 35.3938C38.5974 36.4349 36.9168 37.1146 35.1482 37.3765C33.3796 37.6385 31.5741 37.4751 29.8812 36.9L31.925 43.0313C31.9984 43.2568 32.018 43.4963 31.9822 43.7308C31.9464 43.9652 31.8561 44.188 31.7188 44.3813C31.5802 44.5747 31.3972 44.7319 31.185 44.8396C30.9729 44.9473 30.7379 45.0023 30.5 45ZM20.5812 42H28.4187L25.8125 34.2C25.7145 33.8908 25.718 33.5584 25.8226 33.2513C25.9272 32.9443 26.1274 32.6788 26.3938 32.4938C26.6632 32.3051 26.9872 32.2103 27.3158 32.2239C27.6444 32.2374 27.9595 32.3586 28.2125 32.5688C29.6908 33.8182 31.5644 34.5025 33.5 34.5C35.688 34.5 37.7865 33.6308 39.3336 32.0837C40.8808 30.5365 41.75 28.4381 41.75 26.25C41.75 19.2938 29.975 9.97502 24.5 6.30002C19.025 9.97502 7.25 19.2938 7.25 26.25C7.25 28.4381 8.11919 30.5365 9.66637 32.0837C11.2135 33.6308 13.312 34.5 15.5 34.5C17.4355 34.5025 19.3092 33.8182 20.7875 32.5688C21.041 32.3663 21.3527 32.2504 21.6768 32.2379C22.001 32.2254 22.3207 32.3171 22.589 32.4994C22.8573 32.6818 23.0602 32.9453 23.1679 33.2513C23.2756 33.5573 23.2825 33.8898 23.1875 34.2L20.5812 42Z" fill="#274061"></path></svg>