<svg xmlns="http://www.w3.org/2000/svg" width="49" height="48" viewBox="0 0 49 48" fill="none"><path opacity="0.2" d="M44 23.9625C44.0114 26.1394 43.4296 28.2783 42.3169 30.1494C41.2042 32.0205 39.6028 33.5531 37.6846 34.5825C35.7665 35.6119 33.6041 36.0993 31.4298 35.9923C29.2555 35.8853 27.1515 35.1879 25.3437 33.975C25.0931 33.8105 24.7998 33.7228 24.5 33.7228C24.2001 33.7228 23.9069 33.8105 23.6562 33.975C22.28 34.9124 20.7238 35.553 19.0866 35.8563C17.4493 36.1596 15.7669 36.1188 14.1463 35.7365C12.5257 35.3543 11.0023 34.639 9.67316 33.6361C8.34399 32.6331 7.23809 31.3646 6.4258 29.9111C5.6135 28.4576 5.11259 26.8509 4.95492 25.1933C4.79725 23.5357 4.98628 21.8634 5.50997 20.2828C6.03367 18.7022 6.88057 17.2479 7.99682 16.0124C9.11307 14.7769 10.4742 13.7872 11.9937 13.1063C12.3274 12.9385 12.5925 12.6602 12.7437 12.3188C13.7158 10.0031 15.3501 8.02604 17.4415 6.6357C19.533 5.24536 21.9885 4.50366 24.5 4.50366C27.0114 4.50366 29.4669 5.24536 31.5584 6.6357C33.6499 8.02604 35.2842 10.0031 36.2562 12.3188C36.4075 12.6602 36.6726 12.9385 37.0062 13.1063C39.0871 14.0589 40.8515 15.5876 42.0909 17.5115C43.3303 19.4354 43.9928 21.674 44 23.9625Z" fill="#59E7ED"></path><path d="M37.6438 11.7375C36.5587 9.1467 34.7322 6.93437 32.3936 5.37846C30.0551 3.82254 27.3089 2.99243 24.5 2.99243C21.6912 2.99243 18.945 3.82254 16.6065 5.37846C14.2679 6.93437 12.4414 9.1467 11.3563 11.7375C9.02152 12.8194 7.04291 14.5436 5.65173 16.7084C4.26054 18.8732 3.51424 21.3892 3.50004 23.9625C3.48129 31.2375 9.38754 37.3125 16.6438 37.5C18.8458 37.5598 21.0288 37.0769 23 36.0937V43.5C23 43.8978 23.1581 44.2794 23.4394 44.5607C23.7207 44.842 24.1022 45 24.5 45C24.8979 45 25.2794 44.842 25.5607 44.5607C25.842 44.2794 26 43.8978 26 43.5V36.0937C27.8649 37.0188 29.9184 37.5001 32 37.5H32.3563C39.6125 37.3125 45.5188 31.2375 45.5 23.9625C45.4859 21.3892 44.7396 18.8732 43.3484 16.7084C41.9572 14.5436 39.9786 12.8194 37.6438 11.7375ZM32.2813 34.5C30.1109 34.5562 27.9761 33.9407 26.1688 32.7375L26 32.625V24.9187L34.175 20.85C34.5331 20.671 34.8053 20.3571 34.9319 19.9773C35.0585 19.5975 35.0291 19.183 34.85 18.825C34.671 18.467 34.3571 18.1947 33.9773 18.0681C33.5976 17.9415 33.1831 17.971 32.825 18.15L26 21.5812V16.5C26 16.1022 25.842 15.7206 25.5607 15.4393C25.2794 15.158 24.8979 15 24.5 15C24.1022 15 23.7207 15.158 23.4394 15.4393C23.1581 15.7206 23 16.1022 23 16.5V26.0812L16.175 22.65C15.9978 22.5614 15.8048 22.5085 15.607 22.4944C15.4093 22.4804 15.2108 22.5054 15.0227 22.5681C14.8347 22.6308 14.6609 22.7299 14.5111 22.8598C14.3614 22.9896 14.2387 23.1477 14.15 23.325C14.0614 23.5023 14.0085 23.6953 13.9945 23.893C13.9804 24.0907 14.0055 24.2893 14.0682 24.4773C14.1308 24.6653 14.2299 24.8392 14.3598 24.9889C14.4897 25.1387 14.6478 25.2614 14.825 25.35L23 29.4187V32.625L22.8313 32.7375C21.024 33.9407 18.8892 34.5562 16.7188 34.5C11.075 34.35 6.48129 29.625 6.50004 23.9625C6.51316 21.9615 7.09473 20.0055 8.17695 18.3225C9.25917 16.6394 10.7975 15.2985 12.6125 14.4562C13.2914 14.1398 13.8315 13.5864 14.1313 12.9C14.9903 10.8594 16.4323 9.11762 18.2768 7.89286C20.1212 6.6681 22.286 6.0148 24.5 6.0148C26.7141 6.0148 28.8789 6.6681 30.7233 7.89286C32.5678 9.11762 34.0098 10.8594 34.8688 12.9C35.1686 13.5864 35.7086 14.1398 36.3875 14.4562C38.2026 15.2985 39.7409 16.6394 40.8231 18.3225C41.9054 20.0055 42.4869 21.9615 42.5 23.9625C42.5188 29.625 37.925 34.35 32.2813 34.5Z" fill="#59E7ED"></path></svg>