<svg xmlns="http://www.w3.org/2000/svg" width="49" height="48" viewBox="0 0 49 48" fill="none"><g clip-path="url(#clip0_42_7)"><path opacity="0.2" d="M46.3625 14.775L42.9125 21.675C42.7898 21.9232 42.6001 22.132 42.3648 22.2778C42.1295 22.4237 41.858 22.5006 41.5812 22.5H36.5V7.5L45.7625 12.7875C46.0961 12.9808 46.3437 13.2936 46.4551 13.6627C46.5665 14.0318 46.5334 14.4294 46.3625 14.775ZM2.63747 14.775L6.08747 21.675C6.21011 21.9232 6.39984 22.132 6.63514 22.2778C6.87044 22.4237 7.1419 22.5006 7.41872 22.5H12.5V7.5L3.23747 12.7875C2.90388 12.9808 2.65627 13.2936 2.54485 13.6627C2.43343 14.0318 2.46654 14.4294 2.63747 14.775Z" fill="#59E7ED"></path><path d="M46.5125 11.4937L37.25 6.20623H37.2312L37.1375 6.16873H37.1L37.0062 6.13123H30.5C30.1022 6.13123 29.7206 6.28926 29.4393 6.57056C29.158 6.85187 29 7.2334 29 7.63123C29 8.8247 28.5259 9.96929 27.682 10.8132C26.838 11.6571 25.6935 12.1312 24.5 12.1312C23.3065 12.1312 22.1619 11.6571 21.318 10.8132C20.4741 9.96929 20 8.8247 20 7.63123C20 7.2334 19.8419 6.85187 19.5606 6.57056C19.2793 6.28926 18.8978 6.13123 18.5 6.13123H11.9937L11.9 6.16873H11.8625L11.7687 6.20623H11.75L2.48748 11.4937C1.81962 11.8699 1.32232 12.4889 1.09886 13.2221C0.875398 13.9554 0.942947 14.7465 1.28748 15.4312L4.73748 22.35C4.98764 22.8464 5.37082 23.2636 5.84427 23.555C6.31772 23.8463 6.86281 24.0004 7.41873 24H11V39C11 39.7956 11.316 40.5587 11.8787 41.1213C12.4413 41.6839 13.2043 42 14 42H35C35.7956 42 36.5587 41.6839 37.1213 41.1213C37.6839 40.5587 38 39.7956 38 39V24H41.5812C42.1371 24.0004 42.6822 23.8463 43.1557 23.555C43.6291 23.2636 44.0123 22.8464 44.2625 22.35L47.7125 15.4312C48.057 14.7465 48.1246 13.9554 47.9011 13.2221C47.6776 12.4889 47.1803 11.8699 46.5125 11.4937ZM7.41873 21L3.96873 14.1L11 10.0875V21H7.41873ZM35 39H14V8.99998H17.15C17.4942 10.6954 18.4141 12.2197 19.7536 13.3145C21.0931 14.4094 22.7699 15.0075 24.5 15.0075C26.23 15.0075 27.9068 14.4094 29.2464 13.3145C30.5859 12.2197 31.5057 10.6954 31.85 8.99998H35V39ZM41.5812 21H38V10.0875L45.0312 14.1L41.5812 21Z" fill="#59E7ED"></path></g><defs><clipPath id="clip0_42_7"><rect width="48" height="48" fill="white" transform="translate(0.5)"></rect></clipPath></defs></svg>