<svg xmlns="http://www.w3.org/2000/svg" width="49" height="48" viewBox="0 0 49 48" fill="none"><path opacity="0.2" d="M42.5 15V37.5C42.5 37.8978 42.342 38.2794 42.0607 38.5607C41.7794 38.842 41.3978 39 41 39H8C7.60218 39 7.22064 38.842 6.93934 38.5607C6.65804 38.2794 6.5 37.8978 6.5 37.5V15C6.5 14.6022 6.65804 14.2206 6.93934 13.9393C7.22064 13.658 7.60218 13.5 8 13.5H41C41.3978 13.5 41.7794 13.658 42.0607 13.9393C42.342 14.2206 42.5 14.6022 42.5 15Z" fill="#274061"></path><path d="M41 11.9999H28.1188L34.5687 5.56869C34.8079 5.27725 34.9302 4.90725 34.9117 4.53068C34.8932 4.1541 34.7353 3.79786 34.4687 3.53126C34.2021 3.26466 33.8458 3.10675 33.4693 3.08826C33.0927 3.06976 32.7227 3.192 32.4313 3.43119L24.5 11.3812L16.5687 3.43119C16.2773 3.192 15.9073 3.06976 15.5307 3.08826C15.1542 3.10675 14.7979 3.26466 14.5313 3.53126C14.2647 3.79786 14.1068 4.1541 14.0883 4.53068C14.0698 4.90725 14.1921 5.27725 14.4313 5.56869L20.8812 11.9999H8C7.20435 11.9999 6.44129 12.316 5.87868 12.8786C5.31607 13.4412 5 14.2043 5 14.9999V37.4999C5 38.2956 5.31607 39.0587 5.87868 39.6213C6.44129 40.1839 7.20435 40.4999 8 40.4999H41C41.7957 40.4999 42.5587 40.1839 43.1213 39.6213C43.6839 39.0587 44 38.2956 44 37.4999V14.9999C44 14.2043 43.6839 13.4412 43.1213 12.8786C42.5587 12.316 41.7957 11.9999 41 11.9999ZM41 37.4999H8V14.9999H41V37.4999Z" fill="#274061"></path></svg>