<svg xmlns="http://www.w3.org/2000/svg" width="1440" height="515" viewBox="0 0 1440 515" fill="none"><path fill-rule="evenodd" clip-rule="evenodd" d="M1440 0H0V515H892.1V310.433L836 337.942V233.637L953.61 168.877H1002.31V515H1089.77C1087.88 513.255 1086.02 511.45 1084.19 509.585C1069.38 494.111 1057.71 473.957 1049.16 449.123C1040.81 424.097 1036.63 393.819 1036.63 358.287C1036.63 326.002 1040.81 297.634 1049.16 273.181C1057.71 248.729 1069.38 228.288 1084.19 211.86C1099.19 195.24 1116.27 182.823 1135.45 174.608C1154.81 166.203 1175.32 162 1196.96 162C1218.79 162 1239.3 166.203 1258.47 174.608C1277.83 182.823 1294.92 195.24 1309.73 211.86C1324.54 228.288 1336.12 248.729 1344.47 273.181C1352.82 297.634 1357 326.002 1357 358.287C1357 393.819 1352.82 424.097 1344.47 449.123C1336.12 473.957 1324.54 494.111 1309.73 509.585C1307.92 511.45 1306.08 513.255 1304.21 515H1440V0ZM1151.97 414.45C1148.55 399.741 1146.84 381.02 1146.84 358.287C1146.84 338.037 1148.55 320.557 1151.97 305.848C1155.57 290.947 1161.08 279.39 1168.48 271.175C1175.89 262.961 1185.38 258.854 1196.96 258.854C1208.73 258.854 1218.22 262.961 1225.44 271.175C1232.84 279.39 1238.25 290.947 1241.67 305.848C1245.09 320.557 1246.79 338.037 1246.79 358.287C1246.79 380.828 1245.09 399.454 1241.67 414.164C1238.25 428.682 1232.84 439.476 1225.44 446.544C1218.22 453.612 1208.73 457.146 1196.96 457.146C1185.38 457.146 1175.89 453.708 1168.48 446.83C1161.08 439.762 1155.57 428.969 1151.97 414.45Z" fill="#59E7ED"></path></svg>