<svg xmlns="http://www.w3.org/2000/svg" width="1440" height="469" viewBox="0 0 1440 469" fill="none"><path fill-rule="evenodd" clip-rule="evenodd" d="M1440 0H0V469H1049.41L1049.36 468.847C1045.13 456.156 1038 444.624 1028.53 435.164C1019.07 425.705 1007.53 418.579 994.833 414.349L937.052 395.12C934.896 394.413 933.019 393.044 931.688 391.207C930.358 389.371 929.641 387.162 929.641 384.894C929.641 382.627 930.358 380.417 931.688 378.581C933.019 376.745 934.896 375.376 937.052 374.668L994.833 355.439C1007.53 351.21 1019.07 344.083 1028.53 334.624C1038 325.165 1045.13 313.633 1049.36 300.942L1068.6 243.195C1071.88 233.357 1085.78 233.357 1089.07 243.195L1108.31 300.942C1112.54 313.636 1119.68 325.17 1129.15 334.629C1138.62 344.089 1150.16 351.214 1162.87 355.439L1220.62 374.668C1230.46 377.948 1230.46 391.841 1220.62 395.12L1162.84 414.349C1150.13 418.582 1138.59 425.713 1129.13 435.177C1119.66 444.642 1112.53 456.18 1108.31 468.876L1108.27 469H1440V0ZM955.724 87.9694C954.621 88.7657 953.797 89.8892 953.369 91.1803L941.825 125.823C939.286 133.439 935.007 140.36 929.327 146.036C923.647 151.713 916.722 155.989 909.101 158.527L874.438 170.064C873.147 170.492 872.022 171.315 871.226 172.418C870.429 173.52 870 174.846 870 176.206C870 177.566 870.429 178.891 871.226 179.994C872.022 181.096 873.147 181.92 874.438 182.347L909.101 193.885C916.722 196.422 923.647 200.699 929.327 206.375C935.007 212.052 939.286 218.973 941.825 226.589L953.369 261.231C953.797 262.523 954.621 263.646 955.724 264.442C956.827 265.239 958.153 265.667 959.514 265.667C960.875 265.667 962.201 265.239 963.304 264.442C964.407 263.646 965.231 262.523 965.659 261.231L977.203 226.589C979.742 218.973 984.021 212.052 989.701 206.375C995.381 200.699 1002.31 196.422 1009.93 193.885L1044.59 182.347C1045.88 181.92 1047.01 181.096 1047.8 179.994C1048.6 178.891 1049.03 177.566 1049.03 176.206C1049.03 174.846 1048.6 173.52 1047.8 172.418C1047.01 171.315 1045.88 170.492 1044.59 170.064L1009.93 158.527C994.475 153.369 982.364 141.265 977.203 125.823L965.659 91.1803C965.231 89.8892 964.407 88.7657 963.304 87.9694C962.201 87.1731 960.875 86.7445 959.514 86.7445C958.153 86.7445 956.827 87.1731 955.724 87.9694ZM1165.82 57.8009C1165.08 58.3218 1164.53 59.0579 1164.24 59.9068V59.9366L1156.57 82.9818C1153.14 93.297 1145.06 101.376 1134.74 104.805L1111.65 112.496C1110.8 112.791 1110.06 113.342 1109.54 114.074C1109.02 114.806 1108.74 115.682 1108.74 116.581C1108.74 117.479 1109.02 118.355 1109.54 119.087C1110.06 119.819 1110.8 120.371 1111.65 120.665L1134.71 128.357C1139.79 130.048 1144.41 132.901 1148.2 136.689C1152 140.477 1154.85 145.096 1156.54 150.179L1164.24 173.254C1164.53 174.103 1165.08 174.839 1165.82 175.36C1166.55 175.881 1167.43 176.161 1168.32 176.161C1169.22 176.161 1170.1 175.881 1170.83 175.36C1171.57 174.839 1172.12 174.103 1172.41 173.254L1180.11 150.179C1181.8 145.096 1184.65 140.477 1188.44 136.689C1192.24 132.901 1196.86 130.048 1201.94 128.357L1225.03 120.665C1225.88 120.371 1226.62 119.819 1227.14 119.087C1227.66 118.355 1227.94 117.479 1227.94 116.581C1227.94 115.682 1227.66 114.806 1227.14 114.074C1226.62 113.342 1225.88 112.791 1225.03 112.496L1201.94 104.805C1191.62 101.376 1183.54 93.297 1180.11 82.9818L1172.41 59.9068C1172.12 59.0579 1171.57 58.3218 1170.83 57.8009C1170.1 57.2799 1169.22 57 1168.32 57C1167.43 57 1166.55 57.2799 1165.82 57.8009Z" fill="#59E7ED"></path></svg>