<svg xmlns="http://www.w3.org/2000/svg" width="1440" height="469" viewBox="0 0 1440 469" fill="none"><path fill-rule="evenodd" clip-rule="evenodd" d="M0 0H1440V469H571.134C572.356 466.377 572.998 463.51 573 460.594V229.411C572.997 225.411 571.79 221.503 569.534 218.192C567.278 214.881 564.077 212.318 560.344 210.836L373.461 136.399L373.193 136.319L365.981 133.437C361.179 131.521 355.821 131.521 351.019 133.437L343.834 136.319L343.565 136.399L156.629 210.836C152.901 212.323 149.706 214.887 147.455 218.197C145.204 221.508 144.001 225.414 144 229.411V460.594C144.001 463.51 144.641 466.377 145.861 469H0V0ZM371.906 469H345.094V314.016L170.812 244.624V233.948L193.496 224.901L257.953 250.549L422.957 184.867L459.047 199.252L294.043 264.935L358.5 290.583L523.504 224.927L546.188 233.975V244.651L371.906 314.043V469Z" fill="#59E7ED"></path></svg>